<svg width="32" height="32" viewBox="0 0 32 32" fill="none" xmlns="http://www.w3.org/2000/svg">
<g id="Group 1101">
<path id="Vector" d="M0.75 30.1036V29.5V4C0.75 3.10811 1.07076 2.33819 1.70522 1.70373C2.33966 1.06929 3.10913 0.748957 4.00015 0.750003M0.75 30.1036L28 13.7366C28.0357 13.753 28.0714 13.7697 28.107 13.7866L28 14.0125H27.75V13.8981C27.3543 13.7232 26.9502 13.5738 26.5375 13.45C26.0375 13.3 25.525 13.1875 25 13.1125V4.25H24.75M0.75 30.1036L1.17678 29.6768L3.25 27.6036M0.75 30.1036L3.25 27.6036M4.00015 0.750003C4.0002 0.750003 4.00025 0.750003 4.0003 0.750003L4 1M4.00015 0.750003H4V1M4.00015 0.750003H25C25.8919 0.750003 26.6618 1.07076 27.2963 1.70523C27.9308 2.3397 28.2511 3.10921 28.25 4.00031M4 1C3.176 0.999003 2.47 1.2925 1.882 1.8805C1.294 2.4685 1 3.175 1 4V29.1464L4 1ZM28.25 4.00031L28 4H28.25V4.00031ZM28.25 4.00031V14.0125V14.4075L27.893 14.2384C27.4293 14.0188 26.9535 13.8358 26.4657 13.6895C25.9778 13.5431 25.4775 13.4333 24.9646 13.36L24.75 13.3293V13.1125V4.25M24.75 4.25H4.25V24.825H13.1125H13.3254L13.3593 25.0352C13.4818 25.7946 13.6717 26.5159 13.9285 27.1996C14.1845 27.8809 14.5189 28.5258 14.9319 29.1346L15.0479 29.3057L14.9018 29.4518L14.6768 29.6768L14.5 29.8536L14.3232 29.6768L12.25 27.6036L10.1768 29.6768L10 29.8536L9.82322 29.6768L7.75 27.6036L5.67678 29.6768L5.5 29.8536L5.32322 29.6768L3.25 27.6036M24.75 4.25L3.25 27.6036M20.9521 22.5806L22.2357 23.8643L22.4107 24.0392L22.5874 23.8661L26.0482 20.4767L27.2708 21.6994L22.4131 26.5221L19.7265 23.8354L20.9521 22.5806ZM5.25 10V10.25H5.5H23.5H23.75V10V7V6.75H23.5H5.5H5.25V7V10ZM5.25 22V22.25H5.5H13.1125H13.3293L13.36 22.0354C13.4333 21.5225 13.5431 21.0222 13.6895 20.5343C13.8358 20.0465 14.0188 19.5707 14.2384 19.107L14.4075 18.75H14.0125H5.5H5.25V19V22ZM5.25 16V16.25H5.5H16.15H16.2516L16.3244 16.1791C17.2515 15.2764 18.3319 14.5618 19.5675 14.0355C20.7937 13.5132 22.0985 13.251 23.4843 13.25C23.4895 13.25 23.4947 13.25 23.4998 13.25H23.5L23.5002 12.75C23.4948 12.75 23.4894 12.75 23.484 12.75H5.5H5.25V13V16ZM18.0162 28.9823C19.5262 30.4923 21.3588 31.25 23.4999 31.25L15.75 23.5C15.749 25.6401 16.5062 27.4723 18.0162 28.9823ZM23.5 31.25C25.6401 31.251 27.4723 30.4938 28.9823 28.9838C30.4923 27.4738 31.25 25.6412 31.25 23.5001L23.5 31.25ZM18.0177 18.0162C16.5077 19.5262 15.75 21.3588 15.75 23.4999L23.5 15.75C21.3599 15.749 19.5277 16.5062 18.0177 18.0162ZM28.9838 18.0177C27.4738 16.5077 25.6412 15.75 23.5001 15.75L31.25 23.5C31.251 21.3599 30.4938 19.5277 28.9838 18.0177Z" fill="#000AFF" stroke="white" stroke-width="0.5"/>
</g>
</svg>
