<svg width="145" height="128" viewBox="0 0 145 128" fill="none" xmlns="http://www.w3.org/2000/svg">
<path d="M55.9567 68.8298L26.4549 76.3694L23.824 67.3786C23.71 66.9888 23.6818 66.579 23.7413 66.1773C23.8009 65.7756 23.9467 65.3915 24.1689 65.0516C24.3911 64.7117 24.6843 64.424 25.0283 64.2082C25.3723 63.9925 25.759 63.8538 26.1618 63.8018L43.8671 61.5165L43.8692 61.516C46.4161 60.8724 49.1144 61.2646 51.3727 62.6067C53.631 63.9488 55.2653 66.1314 55.9174 68.6762L55.9567 68.8298Z" fill="#FF5C01"/>
<path d="M34.7808 39.8153L14.2047 45.0737C13.9311 45.1436 13.6739 45.2667 13.4478 45.436C13.2217 45.6053 13.0312 45.8175 12.8871 46.0604C12.7431 46.3034 12.6483 46.5723 12.6083 46.8519C12.5682 47.1315 12.5836 47.4162 12.6536 47.6899L17.912 68.2659C17.9819 68.5396 18.105 68.7968 18.2743 69.0229C18.4436 69.249 18.6558 69.4395 18.8987 69.5835C19.1417 69.7276 19.4106 69.8223 19.6902 69.8624C19.9698 69.9025 20.2546 69.8871 20.5282 69.8171L41.1043 64.5586C41.3779 64.4888 41.6352 64.3657 41.8612 64.1964C42.0873 64.0271 42.2778 63.8149 42.4219 63.5719C42.5659 63.329 42.6607 63.06 42.7008 62.7804C42.7408 62.5009 42.7254 62.2161 42.6554 61.9425L37.397 41.3664C37.3271 41.0927 37.204 40.8355 37.0347 40.6094C36.8654 40.3834 36.6532 40.1928 36.4103 40.0488C36.1673 39.9047 35.8984 39.81 35.6188 39.7699C35.3392 39.7298 35.0544 39.7452 34.7808 39.8153Z" fill="#CCCCCC"/>
<path d="M37.5649 41.3253L38.2638 44.0601L13.5205 50.3835L12.8216 47.6487C12.7516 47.3751 12.7361 47.0903 12.7762 46.8108C12.8163 46.5312 12.9111 46.2622 13.0551 46.0193C13.1992 45.7763 13.3897 45.5641 13.6157 45.3948C13.8418 45.2255 14.099 45.1024 14.3727 45.0326L34.9488 39.7741C35.2224 39.7041 35.5072 39.6887 35.7867 39.7288C36.0663 39.7688 36.3353 39.8636 36.5782 40.0077C36.8212 40.1517 37.0334 40.3422 37.2027 40.5683C37.372 40.7944 37.4951 41.0516 37.5649 41.3253Z" fill="#B3B3B3"/>
<path d="M88.0877 33.0341C87.827 32.6095 87.4764 32.2472 87.0606 31.9728C86.6447 31.6983 86.1738 31.5184 85.6808 31.4457C85.1879 31.3729 84.6851 31.4092 84.2077 31.5518C83.7303 31.6944 83.29 31.94 82.9178 32.2712L52.0144 29.3492L52.5748 36.7396L82.7756 37.288C83.3735 37.8764 84.1664 38.2251 85.0042 38.2679C85.842 38.3108 86.6663 38.0448 87.3211 37.5205C87.9759 36.9961 88.4156 36.2498 88.5569 35.423C88.6982 34.5961 88.5312 33.7461 88.0877 33.0341Z" fill="#865546"/>
<path opacity="0.2" d="M88.243 33.6873C87.9823 33.2627 87.6317 32.9004 87.2158 32.626C86.8 32.3515 86.329 32.1716 85.8361 32.0989C85.3432 32.0261 84.8404 32.0624 84.363 32.205C83.8856 32.3476 83.4453 32.5932 83.073 32.9244L52.1697 30.0024L52.7301 37.3928L82.9309 37.9412C83.5288 38.5296 84.3217 38.8783 85.1595 38.9211C85.9972 38.964 86.8216 38.698 87.4764 38.1737C88.1312 37.6493 88.5709 36.903 88.7121 36.0762C88.8534 35.2493 88.6865 34.3993 88.243 33.6873Z" fill="#865546"/>
<path d="M57.3769 29.0357L56.4885 36.7024C56.4632 36.9205 56.3912 37.1306 56.2774 37.3185C56.1636 37.5063 56.0106 37.6673 55.8289 37.7907C55.6473 37.9141 55.4411 37.9968 55.2246 38.0333C55.0081 38.0699 54.7862 38.0593 54.5741 38.0023L47.143 36.006C46.0277 35.8703 45.0118 35.2979 44.3179 34.4142C43.6241 33.5306 43.3089 32.4079 43.4415 31.2923C43.5741 30.1767 44.1436 29.1591 45.0253 28.4628C45.9069 27.7664 47.0287 27.448 48.1447 27.5775L55.8105 27.3324C56.03 27.3255 56.2484 27.3659 56.4509 27.451C56.6533 27.5361 56.8351 27.6638 56.9837 27.8254C57.1324 27.9871 57.2444 28.1788 57.3123 28.3877C57.3801 28.5965 57.4022 28.8176 57.3769 29.0357Z" fill="#0C700E"/>
<path d="M91.527 39.3514L82.5621 46.5542L85.175 51.2274C90.2209 60.2516 93.481 70.1634 94.7772 80.421L102.589 80.0746L104.73 62.8277L98.0228 45.55L91.527 39.3514Z" fill="#FF5C01"/>
<path d="M117.31 57.8666C110.646 59.5698 106.453 65.8026 107.74 71.9368L132.458 65.6198C130.644 59.6203 123.975 56.1635 117.31 57.8666Z" fill="#2F2E41"/>
<path d="M112.163 59.3028C104.818 32.0052 89.8646 38.5107 89.8646 38.5107C89.8646 38.5107 92.3349 46.9605 92.5428 47.1898C107.288 63.4546 96.5186 89.6926 74.6025 90.9728C74.1893 90.997 73.7912 91.0161 73.4084 91.0301C70.6216 91.1538 67.8924 90.2114 65.7757 88.3945C63.6591 86.5775 62.3141 84.0226 62.0143 81.2492C59.85 64.2068 49.6947 67.1135 49.6947 67.1135L34.7361 70.9364L25.181 65.9302C24.8438 65.7535 24.4683 65.6621 24.0876 65.664C23.7068 65.666 23.3323 65.7611 22.9969 65.9412C22.6614 66.1213 22.3751 66.3809 22.1632 66.6972C21.9512 67.0135 21.8199 67.3769 21.7808 67.7556L21.4747 70.7236C21.4747 70.7236 7.11361 76.0309 12.035 90.1632L16.5964 88.9975C16.6903 89.4107 16.8117 89.8173 16.9598 90.2144L50.9307 81.2379C52.922 80.7117 55.0965 81.8785 55.6147 83.8718C55.7409 84.3571 55.768 84.8629 55.6942 85.3589C55.6204 85.8548 55.4473 86.3308 55.1854 86.7584C54.9234 87.1859 54.5778 87.5562 54.1694 87.8471C53.761 88.1381 53.2982 88.3436 52.8085 88.4515L47.2735 89.6712C47.5075 97.6338 52.9531 101.645 58.3402 103.665C63.4011 105.524 68.9101 105.788 74.1253 104.42L89.0351 100.61C108.399 95.6612 107.617 78.5064 107.617 78.5064C116.661 71.611 112.163 59.3028 112.163 59.3028Z" fill="#2F2E41"/>
<path d="M127.079 101.357C136.628 98.9164 142.39 89.1974 139.95 79.6486C137.51 70.0998 127.791 64.3372 118.242 66.7775C108.693 69.2178 102.93 78.9369 105.371 88.4857C107.811 98.0345 117.53 103.797 127.079 101.357Z" fill="#2F2E41"/>
<path d="M123.744 88.3044C126.085 87.7063 127.497 85.3241 126.899 82.9837C126.301 80.6434 123.919 79.231 121.578 79.8291C119.238 80.4272 117.826 82.8093 118.424 85.1497C119.022 87.4901 121.404 88.9025 123.744 88.3044Z" fill="white"/>
<path d="M39.4693 122.196C50.461 119.387 57.0944 108.199 54.2853 97.2077C51.4763 86.216 40.2885 79.5827 29.2968 82.3917C18.3051 85.2008 11.6717 96.3885 14.4808 107.38C17.2898 118.372 28.4776 125.005 39.4693 122.196Z" fill="#2F2E41"/>
<path d="M83.3418 47.7962L77.1589 38.8163C76.8367 38.3483 76.6098 37.8214 76.4912 37.2657C76.3726 36.71 76.3646 36.1364 76.4677 35.5776C76.5708 35.0188 76.783 34.4858 77.0921 34.009C77.4011 33.5322 77.8011 33.121 78.2691 32.7988L87.7477 26.2731C88.5711 25.7061 89.4982 25.3068 90.476 25.098C91.4537 24.8893 92.463 24.8752 93.4462 25.0565C94.4294 25.2378 95.3673 25.611 96.2063 26.1548C97.0453 26.6986 97.7689 27.4023 98.3359 28.2257C98.8463 28.9645 99.221 29.7882 99.4426 30.6583C99.7209 31.7638 99.7495 32.9175 99.5261 34.0355C99.3027 35.1535 98.8331 36.2076 98.1513 37.1214C97.6578 37.7779 97.0607 38.3496 96.3833 38.8139L83.3418 47.7962Z" fill="#2F2E41"/>
<path d="M99.3694 30.7952C99.6451 31.8774 99.6746 33.0078 99.4558 34.1029C99.237 35.1981 98.7755 36.2303 98.1051 37.1236C96.7237 37.113 95.3612 36.8017 94.1122 36.2112C92.8633 35.6208 91.7579 34.7655 90.8729 33.7046C89.9879 32.6438 89.3446 31.403 88.9876 30.0685C88.6307 28.7339 88.5686 27.3376 88.8058 25.9767C89.8015 25.478 90.8962 25.2086 92.0096 25.1883C93.123 25.1681 94.2268 25.3974 95.24 25.8596C96.2532 26.3217 97.1499 27.0049 97.8645 27.859C98.5791 28.7131 99.0933 29.7163 99.3694 30.7952Z" fill="#FF5C01"/>
<path d="M15.0003 90.6804C17.3769 90.073 18.7057 87.2412 17.9681 84.3554C17.2306 81.4695 14.7061 79.6224 12.3296 80.2298C9.95297 80.8372 8.62424 83.669 9.36175 86.5548C10.0993 89.4407 12.6237 91.2878 15.0003 90.6804Z" fill="#FF5C01"/>
<path d="M75.2933 90.4672L79.0616 89.5042L78.3568 79.2725L72.795 80.6942L75.2933 90.4672Z" fill="#865546"/>
<path d="M73.9259 89.5466L81.3469 87.6498L81.3472 87.6497C81.9683 87.491 82.6145 87.4561 83.249 87.5471C83.8836 87.6382 84.494 87.8533 85.0454 88.1802C85.5967 88.5071 86.0784 88.9394 86.4627 89.4525C86.847 89.9656 87.1265 90.5493 87.2852 91.1703L87.3245 91.324L75.174 94.4297L73.9259 89.5466Z" fill="#2F2E41"/>
<path d="M78.8997 85.1598C78.8558 85.1711 78.8112 85.1802 78.7659 85.1873L73.4538 86.1404C73.2379 86.1747 73.0171 86.159 72.8082 86.0944C72.5993 86.0299 72.4081 85.9182 72.2492 85.7681C72.0903 85.6179 71.968 85.4333 71.8917 85.2284C71.8155 85.0235 71.7873 84.8039 71.8094 84.5864L74.7814 67.1223C74.7955 66.9698 74.7779 66.816 74.7297 66.6706C74.6815 66.5252 74.6037 66.3913 74.5012 66.2774C74.3985 66.162 74.2725 66.0696 74.1316 66.0063C73.9906 65.943 73.8379 65.9103 73.6833 65.9102C70.1822 65.8911 61.1781 65.7587 53.2059 64.9488C49.7904 64.6018 47.4007 63.4496 46.1031 61.5243C44.3925 58.986 45.2162 56.0619 45.2522 55.9389L45.2802 55.8425L52.2984 54.713L59.8957 53.4452L78.4236 58.0188C79.9777 58.4082 81.328 59.3688 82.2057 60.7091C83.0833 62.0494 83.4239 63.6712 83.1596 65.2514L79.9524 84.0175C79.906 84.2893 79.782 84.5418 79.5952 84.7445C79.4084 84.9472 79.1668 85.0915 78.8997 85.1598Z" fill="#2F2E41"/>
<path d="M46.4578 23.0158C50.6272 21.9503 53.1434 17.7065 52.0778 13.5371C51.0123 9.36775 46.7685 6.85158 42.5992 7.91711C38.4298 8.98265 35.9136 13.2264 36.9791 17.3958C38.0447 21.5652 42.2884 24.0813 46.4578 23.0158Z" fill="#865546"/>
<path d="M73.3528 91.907L77.1212 90.944L76.4164 80.7123L70.8546 82.134L73.3528 91.907Z" fill="#865546"/>
<path d="M71.9864 90.9863L79.4074 89.0895L79.4078 89.0894C80.0288 88.9307 80.6751 88.8958 81.3096 88.9868C81.9441 89.0779 82.5545 89.293 83.1059 89.6199C83.6573 89.9468 84.1389 90.3791 84.5232 90.8922C84.9075 91.4053 85.187 91.989 85.3457 92.61L85.385 92.7637L73.2346 95.8694L71.9864 90.9863Z" fill="#2F2E41"/>
<path d="M76.9583 86.5998C76.9144 86.611 76.8698 86.6202 76.8245 86.6273L71.5124 87.5803C71.2965 87.6146 71.0756 87.5989 70.8668 87.5344C70.6579 87.4698 70.4666 87.3582 70.3078 87.208C70.1489 87.0579 70.0266 86.8733 69.9503 86.6684C69.8741 86.4635 69.8459 86.2438 69.868 86.0263L72.84 68.5622C72.8541 68.4097 72.8365 68.2559 72.7883 68.1105C72.7401 67.9651 72.6623 67.8313 72.5598 67.7174C72.4571 67.6019 72.3311 67.5095 72.1902 67.4462C72.0492 67.3829 71.8964 67.3502 71.7419 67.3502C68.2408 67.331 59.2367 67.1987 51.2645 66.3888C47.849 66.0417 45.4592 64.8896 44.1617 62.9642C42.451 60.4259 43.2748 57.5018 43.3107 57.3788L43.3388 57.2824L50.357 56.153L57.9543 54.8852L76.4822 59.4587C78.0363 59.8482 79.3866 60.8087 80.2643 62.149C81.1419 63.4894 81.4825 65.1111 81.2181 66.6913L78.011 85.4575C77.9646 85.7292 77.8406 85.9817 77.6538 86.1844C77.467 86.3872 77.2254 86.5314 76.9583 86.5998Z" fill="#2F2E41"/>
<path d="M49.4231 26.7875L40.7244 26.0635C40.7244 26.0635 36.6926 31.2001 41.5463 40.146C44.0656 44.7587 45.0301 50.0609 44.2969 55.2653C44.2126 55.9076 44.0889 56.5441 43.9264 57.1712C43.9264 57.1712 55.5895 65.6512 61.8462 55.5386L54.6519 40.8412C54.6519 40.8412 57.092 29.2481 49.4231 26.7875Z" fill="#0C700E"/>
<path d="M47.4927 23.0065C46.0073 21.6728 44.5894 19.6594 45.3813 17.8269C46.163 16.018 48.5231 15.6519 50.1406 14.5265C52.3937 12.959 53.0905 9.66345 51.9701 7.15784C50.8498 4.65224 48.1908 3.01736 45.4574 2.76893C42.724 2.5205 39.9717 3.53186 37.7791 5.18273C35.0799 7.21497 33.1111 10.3149 32.8135 13.6805C32.5159 17.0461 34.0443 20.6052 36.9054 22.4024C39.9728 24.3292 43.9396 24.0378 47.4384 23.0998" fill="#2F2E41"/>
<path d="M36.8731 10.7153C35.8009 12.1635 33.6101 12.2018 31.9096 11.6059C30.209 11.01 28.6777 9.93403 26.9114 9.57748C23.7974 8.94892 20.6729 10.6943 18.3533 12.8649C16.0337 15.0354 14.1648 17.6927 11.6119 19.5833C9.05895 21.4738 5.43686 22.4607 2.71799 20.8177C2.58015 22.492 2.96225 24.1682 3.81217 25.6173C4.66209 27.0665 5.93843 28.2182 7.46705 28.9152C8.99567 29.6122 10.7021 29.8206 12.3536 29.512C14.005 29.2034 15.521 28.3928 16.6947 27.1908C19.3313 24.4906 20.0369 20.0615 23.2711 18.1166C25.0608 17.0403 27.2615 16.9764 29.3498 16.9826C31.4382 16.9888 33.6206 17.0144 35.4871 16.0778C37.3537 15.1411 38.7487 12.8921 37.9842 10.9488L36.8731 10.7153Z" fill="#2F2E41"/>
<path d="M87.5985 32.8228C87.2875 32.4336 86.8948 32.1173 86.4483 31.8963C86.0018 31.6753 85.5122 31.5548 85.0141 31.5435C84.516 31.5321 84.0214 31.6301 83.5653 31.8305C83.1091 32.031 82.7025 32.329 82.374 32.7036L51.3462 33.6169L52.8142 40.8816L82.8519 37.6996C83.5178 38.2097 84.3477 38.4579 85.1843 38.3971C86.021 38.3362 86.8062 37.9706 87.3913 37.3695C87.9764 36.7684 88.3207 35.9735 88.3589 35.1355C88.3971 34.2975 88.1265 33.4746 87.5985 32.8228Z" fill="#865546"/>
<path d="M56.6295 32.6348L56.6938 40.3525C56.6957 40.5721 56.6501 40.7895 56.5604 40.99C56.4706 41.1904 56.3387 41.3691 56.1736 41.5139C56.0086 41.6587 55.8142 41.7663 55.6038 41.8293C55.3935 41.8922 55.172 41.9091 54.9545 41.8787L47.3338 40.8146C46.2098 40.8183 45.1303 40.3759 44.332 39.5846C43.5338 38.7933 43.082 37.7176 43.076 36.5936C43.0699 35.4696 43.51 34.3891 44.2996 33.5892C45.0893 32.7892 46.164 32.3353 47.288 32.3268L54.865 31.1378C55.0819 31.1038 55.3037 31.117 55.5151 31.1765C55.7265 31.2359 55.9226 31.3402 56.09 31.4823C56.2575 31.6243 56.3923 31.8008 56.4854 31.9997C56.5785 32.1986 56.6277 32.4152 56.6295 32.6348Z" fill="#0C700E"/>
<path d="M85.6341 39.6383C86.8224 39.3347 87.5396 38.1252 87.2359 36.9369C86.9322 35.7486 85.7227 35.0315 84.5344 35.3351C83.3461 35.6388 82.629 36.8483 82.9327 38.0366C83.2364 39.2249 84.4458 39.942 85.6341 39.6383Z" fill="#2F2E41"/>
</svg>
