<?xml version="1.0" encoding="UTF-8" standalone="no"?>
<svg
   width="28.831654"
   height="22.5"
   viewBox="0 0 28.831654 22.5"
   fill="none"
   version="1.1"
   id="svg43"
   xmlns="http://www.w3.org/2000/svg"
   xmlns:svg="http://www.w3.org/2000/svg">
  <g
     clip-path="url(#clip0_743_1403)"
     id="g32"
     transform="translate(-0.66552786,-7.5)">
    <g
       id="g262">
      <g
         id="g388">
        <path
           d="m 18.3332,18.3334 c -1.3483,0 -2.0258,0.255 -2.5,-0.8333 -0.4742,-1.0884 -0.0167,-1.6667 0.8333,-1.6667 0.85,0 4.7734,-0.1508 6.6667,-0.8333 1.8933,-0.6825 2.5442,-0.6925 2.5,0 -0.0442,0.6925 -0.8333,1.6666 -0.8333,1.6666 0,0 -1.045,1.6667 -6.6667,1.6667 z m -6.6667,-5 H 8.95736 c -0.45834,0 -0.83334,-0.375 -0.83334,-0.8333 0,-0.4584 0.375,-0.8334 0.83334,-0.8334 h 2.70914 c 0.4584,0 0.8334,0.375 0.8334,0.8334 0,0.4583 -0.375,0.8333 -0.8334,0.8333 z"
           fill="#292f33"
           id="path24" />
        <path
           d="m 8.3335,26.25 c 0,0.9946 -0.39509,1.9484 -1.09835,2.6516 C 6.53188,29.6049 5.57806,30 4.5835,30 3.58893,30 2.63511,29.6049 1.93185,28.9016 1.22858,28.1984 0.833496,27.2446 0.833496,26.25 c 0,-0.9946 0.395084,-1.9484 1.098354,-2.6517 C 2.63511,22.8951 3.58893,22.5 4.5835,22.5 c 0.99456,0 1.94838,0.3951 2.65165,1.0983 0.70326,0.7033 1.09835,1.6571 1.09835,2.6517 z m 20,0 c 0,0.9946 -0.3951,1.9484 -1.0984,2.6516 C 26.5319,29.6049 25.5781,30 24.5835,30 c -0.9946,0 -1.9484,-0.3951 -2.6517,-1.0984 -0.7032,-0.7032 -1.0983,-1.657 -1.0983,-2.6516 0,-0.9946 0.3951,-1.9484 1.0983,-2.6517 0.7033,-0.7032 1.6571,-1.0983 2.6517,-1.0983 0.9946,0 1.9484,0.3951 2.6516,1.0983 0.7033,0.7033 1.0984,1.6571 1.0984,2.6517 z"
           fill="#292f33"
           id="path14" />
        <path
           d="M 4.87851,20.0685 7.05768,14.2443 6.66685,13.3335 c 0,0 -0.76334,0.0066 -0.83334,-0.8334 -0.06916,-0.8391 2.00667,-2.56581 2.5,-2.5 0.49417,0.0667 0,1.6667 0,1.6667 0,0 1.93329,0.4642 1.66669,1.6667 -0.26585,1.2033 -1.97919,7.24 -1.97919,7.24 0,0 1.45834,0.7291 1.97919,1.9266 0.3741,0.86 1.4008,0.8484 2.5,0.8334 1.0991,-0.0134 3.6608,-0.0059 4.1666,-1.6667 0.505,-1.6592 0.8334,-2.5 0.8334,-2.5 l -0.8334,-0.8333 8.3334,-1.6667 c 0,0 -0.7425,1.6517 0.8333,2.5 1.8067,0.9742 2.3833,2.2242 3.3333,4.1667 0.6242,1.2783 0.3734,1.5808 -0.8333,1.6666 -1.6175,0.1167 -3.7,0.3217 -4.825,0.4459 -0.9975,0.1116 -1.9033,1.375 -3.47,1.375 -1.5667,0 -8.3767,0.0408 -10.0383,-0.155 -2.91335,-0.3409 -3.96502,-2.5 -8.33335,-2.5 -1.7266695,0 -0.883336,-1.3025 0.02333,-2.2209 1.0075,-1.0216 3.1675,-2 3.18833,-1.8766 z"
           fill="#0c700e"
           id="path18" />
        <path
           d="M 10.885,10.8333 H 10.7808 C 10.5739,10.8327 10.3757,10.7502 10.2294,10.6039 10.0831,10.4576 10.0007,10.2594 10,10.0525 V 8.28083 C 10.0007,8.0738 10.0833,7.87545 10.2297,7.72914 10.3762,7.58282 10.5746,7.50044 10.7817,7.5 h 0.1041 c 0.2069,6.6e-4 0.4051,0.08314 0.5514,0.22943 0.1463,0.14629 0.2288,0.34452 0.2295,0.5514 v 1.77167 c -7e-4,0.207 -0.0833,0.4054 -0.2298,0.5517 -0.1464,0.1463 -0.3449,0.2287 -0.5519,0.2291 z"
           fill="#292f33"
           id="path28" />
        <path
           d="M 8.31813,12.5551 8.29979,12.5367 C 8.22443,12.4609 8.18213,12.3583 8.18213,12.2513 c 0,-0.1069 0.0423,-0.2095 0.11766,-0.2854 L 10.6748,9.59008 c 0.0759,-0.07537 0.1785,-0.11767 0.2854,-0.11767 0.107,0 0.2096,0.0423 0.2854,0.11767 l 0.0192,0.01833 c 0.0754,0.07587 0.1177,0.17847 0.1177,0.28542 0,0.10697 -0.0423,0.20957 -0.1177,0.28537 l -2.37584,2.3759 c -0.07587,0.0753 -0.17848,0.1176 -0.28542,0.1176 -0.10694,0 -0.20954,-0.0423 -0.28541,-0.1176 z"
           fill="#292f33"
           id="path30" />
      </g>
    </g>
  </g>
  <defs
     id="defs41">
    <clipPath
       id="clip0_743_1403">
      <rect
         width="393"
         height="852"
         fill="#ffffff"
         transform="translate(-297,-325)"
         id="rect37"
         x="0"
         y="0" />
    </clipPath>
  </defs>
</svg>
