<svg width="24" height="24" viewBox="0 0 24 24" fill="none" xmlns="http://www.w3.org/2000/svg">
<g id="gis:position" clip-path="url(#clip0_743_24628)">
<path id="Vector" d="M12.0001 0C8.07586 0 4.85986 3.2064 4.85986 7.11984C4.85986 8.63616 5.34418 10.0454 6.16378 11.2037L11.1287 19.7868C11.8239 20.6952 12.2862 20.5226 12.8643 19.7388L18.3407 10.4196C18.4511 10.2194 18.5379 10.0063 18.6135 9.78864C18.9611 8.9418 19.1398 8.03521 19.1396 7.11984C19.1399 3.2064 15.9248 0 12.0001 0ZM12.0001 3.336C14.1135 3.336 15.794 5.01264 15.794 7.11984C15.794 9.22704 14.1135 10.903 12.0001 10.903C9.8869 10.903 8.2057 9.22728 8.2057 7.11984C8.2057 5.01264 9.8869 3.33624 12.0001 3.33624V3.336Z" fill="black"/>
<path id="Vector_2" d="M16.5393 11.738L16.5278 11.7683C16.5314 11.7592 16.5343 11.7498 16.5379 11.7407L16.5393 11.738ZM15.3237 17.6051L14.9918 18.0155C15.4406 18.0697 15.875 18.1333 16.2818 18.2104L14.9668 18.5999L16.7219 19.0667L18.0302 18.6541C18.8337 18.9236 19.9463 19.2532 20.315 19.6278H17.6918L17.9524 20.39H20.6745C20.6663 20.8196 19.8983 21.1686 19.1649 21.4513L17.3047 21.0491L15.5519 21.6772L17.4239 22.1044C16.331 22.402 14.4959 22.5829 12.9767 22.6662L12.9129 21.7926H11.0875L11.0234 22.6662C9.50417 22.5829 7.66937 22.4022 6.57617 22.1046L8.44841 21.6772L6.69569 21.0491L4.83521 21.4513C4.11233 21.2317 3.33401 20.8196 3.32585 20.39H6.04817L6.30881 19.6278H3.68561C4.05425 19.2532 5.16689 18.9236 5.97041 18.6541L7.27865 19.0667L9.03377 18.5999L7.71881 18.2104C8.14347 18.1319 8.57058 18.0673 8.99945 18.0167L8.67233 17.6056C5.12393 17.9744 2.17481 18.76 1.40153 20.0005C0.168173 21.9776 4.71809 23.9665 11.849 23.9975C11.9551 24.0028 12.0597 23.9989 12.1586 23.9975C19.2854 23.9648 23.8312 21.9767 22.5988 20.0005C21.8251 18.7595 18.8743 17.9737 15.3237 17.6051Z" fill="black"/>
</g>
<defs>
<clipPath id="clip0_743_24628">
<rect width="24" height="24" fill="white"/>
</clipPath>
</defs>
</svg>
