<svg width="31" height="34" viewBox="0 0 31 34" fill="none" xmlns="http://www.w3.org/2000/svg">
<g id="Group 1103">
<g id="Group 1100">
<g id="Vector">
<path d="M15.3779 23.8848V26.3051V23.8848ZM15.3779 11.8793V14.1318V11.8793ZM15.3779 32.2C23.765 32.2 29.7558 29.2286 29.7558 22.6147C29.7558 15.4258 26.1613 10.6332 18.9724 7.03871L21.8 3.39631C21.9437 3.15733 22.0216 2.88462 22.0259 2.60582C22.0301 2.32701 21.9606 2.05203 21.8244 1.80875C21.6882 1.56546 21.49 1.36252 21.2501 1.22049C21.0101 1.07846 20.7369 1.0024 20.4581 1H10.2977C10.0189 1.0024 9.74564 1.07846 9.50569 1.22049C9.26573 1.36252 9.0676 1.56546 8.93136 1.80875C8.79512 2.05203 8.72562 2.32701 8.7299 2.60582C8.73419 2.88462 8.81211 3.15733 8.95576 3.39631L11.7834 7.06267C4.59447 10.6811 1 15.4737 1 22.6627C1 29.2286 6.99078 32.2 15.3779 32.2Z" fill="#2B6C2C"/>
<path d="M15.3779 23.8848V26.3051M15.3779 11.8793V14.1318M15.3779 32.2C23.765 32.2 29.7558 29.2286 29.7558 22.6147C29.7558 15.4258 26.1613 10.6332 18.9724 7.03871L21.8 3.39631C21.9437 3.15733 22.0216 2.88462 22.0259 2.60582C22.0301 2.32701 21.9606 2.05203 21.8244 1.80875C21.6882 1.56546 21.49 1.36252 21.2501 1.22049C21.0101 1.07846 20.7369 1.0024 20.4581 1H10.2977C10.0189 1.0024 9.74564 1.07846 9.50569 1.22049C9.26574 1.36252 9.0676 1.56546 8.93136 1.80875C8.79512 2.05203 8.72562 2.32701 8.7299 2.60582C8.73419 2.88462 8.81211 3.15733 8.95576 3.39631L11.7834 7.06267C4.59447 10.6811 1 15.4737 1 22.6627C1 29.2286 6.99078 32.2 15.3779 32.2Z" stroke="white" stroke-width="2" stroke-linecap="round" stroke-linejoin="round"/>
</g>
<path id="Vector_2" d="M13.197 22.9582C13.4894 23.3052 13.8574 23.5807 14.2728 23.7635C14.6882 23.9462 15.1399 24.0314 15.5933 24.0125C16.2863 24.0598 16.9707 23.8365 17.5025 23.3896C18.0343 22.9427 18.3721 22.307 18.4449 21.6162C18.3721 20.9254 18.0343 20.2897 17.5025 19.8428C16.9707 19.396 16.2863 19.1727 15.5933 19.2199C14.9003 19.2671 14.2159 19.0438 13.6841 18.597C13.1523 18.1501 12.8145 17.5144 12.7417 16.8236C12.8087 16.1304 13.1449 15.491 13.678 15.043C14.2112 14.5949 14.8989 14.3739 15.5933 14.4273C16.0388 14.4 16.4847 14.4719 16.899 14.6376C17.3134 14.8033 17.6859 15.0589 17.9896 15.3858" stroke="white" stroke-width="2" stroke-linecap="round" stroke-linejoin="round"/>
</g>
</g>
</svg>
