<svg width="48" height="38" viewBox="0 0 48 38" fill="none" xmlns="http://www.w3.org/2000/svg">
<path d="M4.1875 16.4375H3.6875V16.9375V20.125V20.625H4.1875H23.3125H23.8125V20.125V16.9375V16.4375H23.3125H4.1875ZM1 8.46875H0.5V8.96875V12.1562V12.6562H1H16.9375H17.4375V12.1562V8.96875V8.46875H16.9375H1Z" fill="#FF5B00" stroke="white"/>
<path d="M36.0864 5.28125H40.3674H40.3676V5.78125C40.6795 5.78108 40.9846 5.87252 41.245 6.04422C41.5054 6.21592 41.7096 6.46031 41.8323 6.74706L36.0864 5.28125ZM36.0864 5.28125V2.59375C36.0864 2.03845 35.8658 1.5059 35.4731 1.11325C35.0805 0.720591 34.5479 0.5 33.9926 0.5H8.49263H7.99263V1V4.9375V5.44807L8.50308 5.43739L31.8989 4.94807V23.9179C31.2189 24.3524 30.6201 24.9039 30.1308 25.5475C29.6613 26.1652 29.3005 26.8572 29.0629 27.5937H19.7984C19.3309 26.1313 18.3855 24.8633 17.1086 23.9974C15.7236 23.0583 14.0437 22.6564 12.3837 22.8673C10.7237 23.0781 9.19762 23.8872 8.09145 25.1427C6.98528 26.3983 6.375 28.0142 6.375 29.6875C6.375 31.3608 6.98528 32.9767 8.09145 34.2323C9.19762 35.4878 10.7237 36.2969 12.3837 36.5077C14.0437 36.7185 15.7236 36.3167 17.1086 35.3776C18.3855 34.5117 19.3309 33.2437 19.7984 31.7812H29.0602C29.4768 33.1022 30.2858 34.269 31.3838 35.1234C32.5852 36.0583 34.0641 36.5659 35.5864 36.5659C37.1087 36.5659 38.5875 36.0583 39.7889 35.1234C40.8869 34.269 41.6959 33.1022 42.1126 31.7812H45.1489C45.7042 31.7812 46.2367 31.5607 46.6294 31.168C47.022 30.7754 47.2426 30.2428 47.2426 29.6875V18.5314C47.2426 18.5314 47.2426 18.5313 47.2426 18.5312C47.2427 18.2475 47.185 17.9666 47.0729 17.7059L42.292 6.55036M36.0864 5.28125L42.292 6.55036M42.292 6.55036C42.2919 6.55028 42.2919 6.55019 42.2919 6.5501L42.292 6.55036ZM11.7808 31.9221C12.2226 32.2173 12.742 32.3749 13.2734 32.375C13.9861 32.3743 14.6694 32.0909 15.1733 31.5869C15.6772 31.083 15.9607 30.3997 15.9614 29.687L11.7808 31.9221ZM11.7808 31.9221C11.3388 31.6268 10.9944 31.207 10.791 30.716M11.7808 31.9221L10.791 30.716M10.791 30.716C10.5875 30.2249 10.5343 29.6845 10.638 29.1632M10.791 30.716L10.638 29.1632M10.638 29.1632C10.7417 28.6419 10.9977 28.163 11.3735 27.7871M10.638 29.1632L11.3735 27.7871M11.3735 27.7871C11.7494 27.4113 12.2283 27.1553 12.7496 27.0516M11.3735 27.7871L12.7496 27.0516M12.7496 27.0516C13.2709 26.9479 13.8113 27.0012 14.3023 27.2046M12.7496 27.0516L14.3023 27.2046M14.3023 27.2046C14.7934 27.408 15.2131 27.7524 15.5085 28.1944M14.3023 27.2046L15.5085 28.1944M15.5085 28.1944C15.8037 28.6362 15.9613 29.1556 15.9614 29.687L15.5085 28.1944ZM34.0933 31.9221C34.5351 32.2173 35.0545 32.3749 35.5859 32.375C36.2986 32.3743 36.9819 32.0909 37.4858 31.5869C37.9897 31.083 38.2732 30.3997 38.2739 29.687L34.0933 31.9221ZM34.0933 31.9221C33.6513 31.6268 33.3069 31.207 33.1035 30.716M34.0933 31.9221L33.1035 30.716M33.1035 30.716C32.9 30.2249 32.8468 29.6845 32.9505 29.1632M33.1035 30.716L32.9505 29.1632M32.9505 29.1632C33.0542 28.6419 33.3102 28.163 33.686 27.7871M32.9505 29.1632L33.686 27.7871M33.686 27.7871C34.0619 27.4113 34.5407 27.1553 35.0621 27.0516M33.686 27.7871L35.0621 27.0516M35.0621 27.0516C35.5834 26.9479 36.1238 27.0012 36.6148 27.2046M35.0621 27.0516L36.6148 27.2046M36.6148 27.2046C37.1059 27.408 37.5256 27.7524 37.821 28.1944M36.6148 27.2046L37.821 28.1944M37.821 28.1944C38.1162 28.6362 38.2738 29.1556 38.2739 29.687L37.821 28.1944ZM36.0864 9.46875H38.9861L41.9743 16.4375H36.0864V9.46875ZM43.0551 27.5937H42.1113C41.691 26.2755 40.8811 25.1116 39.784 24.2585C38.7156 23.4277 37.4286 22.9335 36.0864 22.832V20.625H43.0551V27.5937Z" fill="#FF5B00" stroke="white"/>
</svg>
