<svg width="24" height="25" viewBox="0 0 24 25" fill="none" xmlns="http://www.w3.org/2000/svg">
<path d="M2.5 12.5H11.5V14H2.5V12.5ZM1 8.75H8.5V10.25H1V8.75Z" fill="#A8A8A8"/>
<path d="M21.9393 12.9545L19.6893 7.7045C19.6315 7.56956 19.5354 7.45455 19.4129 7.37375C19.2903 7.29295 19.1468 7.24992 19 7.25H16.75V5.75C16.75 5.55109 16.671 5.36032 16.5303 5.21967C16.3897 5.07902 16.1989 5 16 5H4.00001V6.5H15.25V15.917C14.9083 16.1154 14.6092 16.3796 14.37 16.6942C14.1308 17.0088 13.9563 17.3676 13.8565 17.75H9.14351C8.96096 17.043 8.52683 16.4269 7.9225 16.017C7.31817 15.6072 6.58512 15.4319 5.86076 15.5239C5.1364 15.6159 4.47046 15.9689 3.98777 16.5168C3.50507 17.0647 3.23877 17.7698 3.23877 18.5C3.23877 19.2302 3.50507 19.9353 3.98777 20.4832C4.47046 21.0311 5.1364 21.3841 5.86076 21.4761C6.58512 21.5681 7.31817 21.3928 7.9225 20.983C8.52683 20.5731 8.96096 19.957 9.14351 19.25H13.8565C14.0197 19.8937 14.3928 20.4646 14.9168 20.8724C15.4409 21.2802 16.086 21.5016 16.75 21.5016C17.414 21.5016 18.0591 21.2802 18.5832 20.8724C19.1072 20.4646 19.4804 19.8937 19.6435 19.25H21.25C21.4489 19.25 21.6397 19.171 21.7803 19.0303C21.921 18.8897 22 18.6989 22 18.5V13.25C22 13.1484 21.9794 13.0479 21.9393 12.9545ZM6.25001 20C5.95334 20 5.66333 19.912 5.41665 19.7472C5.16998 19.5824 4.97772 19.3481 4.86419 19.074C4.75066 18.7999 4.72095 18.4983 4.77883 18.2074C4.83671 17.9164 4.97957 17.6491 5.18935 17.4393C5.39913 17.2296 5.6664 17.0867 5.95737 17.0288C6.24834 16.9709 6.54994 17.0006 6.82403 17.1142C7.09812 17.2277 7.33239 17.42 7.49721 17.6666C7.66203 17.9133 7.75001 18.2033 7.75001 18.5C7.74961 18.8977 7.59145 19.279 7.31023 19.5602C7.02901 19.8414 6.64771 19.9996 6.25001 20ZM16.75 8.75H18.505L20.113 12.5H16.75V8.75ZM16.75 20C16.4533 20 16.1633 19.912 15.9167 19.7472C15.67 19.5824 15.4777 19.3481 15.3642 19.074C15.2507 18.7999 15.221 18.4983 15.2788 18.2074C15.3367 17.9164 15.4796 17.6491 15.6893 17.4393C15.8991 17.2296 16.1664 17.0867 16.4574 17.0288C16.7483 16.9709 17.0499 17.0006 17.324 17.1142C17.5981 17.2277 17.8324 17.42 17.9972 17.6666C18.162 17.9133 18.25 18.2033 18.25 18.5C18.2496 18.8977 18.0914 19.279 17.8102 19.5602C17.529 19.8414 17.1477 19.9996 16.75 20ZM20.5 17.75H19.6435C19.4783 17.1076 19.1046 16.5381 18.5809 16.1309C18.0573 15.7238 17.4133 15.5018 16.75 15.5V14H20.5V17.75Z" fill="#A8A8A8"/>
</svg>
