<svg width="168" height="183" viewBox="0 0 168 183" fill="none" xmlns="http://www.w3.org/2000/svg">
<g id="illustration marchand">
<g id="XMLID_875_">
<g id="XMLID_870_">
<path id="XMLID_872_" d="M92.0338 104.676C92.1762 105.008 91.7559 118.222 91.7559 118.222L94.8689 119.03L97.4203 107.404L92.0338 104.676Z" fill="#FF5C01"/>
<path id="XMLID_871_" d="M94.386 117.526C94.386 117.526 96.9736 120.031 96.9736 122.309C96.9736 124.586 96.8214 125.243 96.4423 124.99C96.0633 124.737 94.8662 121.959 94.8662 121.959C94.8662 121.959 95.1549 126.208 96.0702 127.499C96.9844 128.789 95.6597 129.164 94.9585 128.482C94.2573 127.798 93.1211 125.288 93.1211 125.288C93.1211 125.288 93.4599 126.318 93.7309 127.097C94.0344 127.969 94.2583 128.604 93.9372 128.685C93.6229 128.764 92.8019 128.286 92.2176 127.205C91.6726 126.197 91.3534 124.628 91.2808 123.478C91.1285 121.094 91.7836 117.23 91.7836 117.23L94.386 117.526Z" fill="#865546"/>
</g>
<g id="XMLID_869_">
<path id="XMLID_866_" d="M102.566 90.3845L99.5751 83.9414C99.5751 83.9414 96.3078 85.2583 94.2622 90.6045C92.2167 95.9497 90.3164 112.3 90.3164 112.3L98.1295 114.742L102.566 90.3845Z" fill="#FF5C01"/>
<path id="XMLID_865_" d="M99.0262 113.874L90.3175 109.973L89.5996 115.68L99.0262 118.088V113.874Z" fill="#FF5C01"/>
</g>
<g id="XMLID_874_">
<g id="XMLID_873_">
<g id="XMLID_849_">
<path id="XMLID_851_" d="M117.415 163.089L117.129 158.66L112.811 159.085L113.621 164.924L117.415 163.089Z" fill="#EF745D"/>
<path id="XMLID_850_" d="M117.415 163.087C115.946 162.978 108.423 164.6 108.717 166.292C109.011 167.983 110.775 168.144 113.713 168.063C116.651 167.983 118.591 168.427 118.532 166.902C118.473 165.378 117.415 163.087 117.415 163.087Z" fill="#5D515D"/>
</g>
<g id="XMLID_846_">
<path id="XMLID_848_" d="M104.174 164.256C104.174 164.012 104.174 158.113 104.174 158.113H99.5527L100.222 164.925L104.174 164.256Z" fill="#EF745D"/>
<path id="XMLID_847_" d="M104.217 163.091C102.206 162.982 91.9135 164.603 92.3162 166.296C92.7178 167.987 95.1307 168.148 99.1512 168.067C103.172 167.987 105.825 168.43 105.745 166.906C105.664 165.382 104.217 163.091 104.217 163.091Z" fill="#5D515D"/>
</g>
</g>
<g id="XMLID_839_">
<path id="XMLID_843_" d="M98.4694 105.684C98.4694 105.684 96.4346 114.864 96.6193 122.649C96.8039 130.435 98.4694 159.986 98.4694 159.986H104.907L106.054 120.717L112.084 160.247H117.755C117.755 160.247 116.968 130.774 116.783 122.65C116.599 114.527 116.599 107.628 116.599 107.628L98.4694 105.684Z" fill="#FFEDE2"/>
<path id="XMLID_842_" d="M99.5745 83.9421C101.194 83.1909 115.995 84.5726 117.434 86.0004C118.873 87.4283 116.322 112.902 116.322 112.902C116.322 112.902 97.8245 113.457 97.1213 113.877C95.2574 114.988 99.5745 83.9421 99.5745 83.9421Z" fill="#FF5C01"/>
</g>
</g>
<g id="XMLID_853_">
<path id="XMLID_841_" d="M115.496 69.2667C115.139 72.9689 111.776 75.6745 107.986 75.3082C104.197 74.9419 101.414 71.6442 101.771 67.9419C102.129 64.2396 105.491 61.5341 109.281 61.9004C113.07 62.2657 115.854 65.5644 115.496 69.2667Z" fill="#FF5C01" fill-opacity="0.8"/>
<path id="XMLID_824_" d="M125.01 72.9C124.48 75.9492 116.839 77.1689 107.944 75.6232C99.0483 74.0775 92.2664 70.3526 92.7967 67.3034C93.327 64.2541 100.967 63.0345 109.863 64.5802C118.758 66.1259 125.54 69.8508 125.01 72.9Z" fill="#FF5C01"/>
<g id="XMLID_825_">
<g id="XMLID_826_">
<path id="XMLID_838_" d="M101.011 73.931C100.764 74.7156 101.46 75.6329 102.564 75.9795C103.668 76.3262 104.763 75.9707 105.009 75.1851C105.256 74.4004 104.56 73.4832 103.456 73.1365C102.352 72.7899 101.257 73.1463 101.011 73.931Z" fill="#865546"/>
<path id="XMLID_837_" d="M113.768 72.3114C113.768 76.2631 109.544 79.7719 106.566 79.7719C103.587 79.7719 102.98 76.2631 102.98 72.3114C102.98 68.3596 105.395 65.1562 108.374 65.1562C111.352 65.1562 113.768 68.3596 113.768 72.3114Z" fill="#865546"/>
<path id="XMLID_836_" d="M111.959 73.8281C111.632 78.207 111.331 82.5545 112.869 84.7769C112.869 84.7769 108.031 88.817 106.886 87.4392C105.741 86.0614 105.324 83.894 105.324 83.894C107.369 82.6184 107.583 79.3786 107.669 76.0023L111.959 73.8281Z" fill="#865546"/>
<path id="XMLID_835_" d="M107.215 67.3369C107.448 67.2416 107.452 69.7979 110.257 71.8062L111.445 75.2767L114.146 74.1798C114.146 74.1798 117.472 64.5175 109.738 65.1548C109.738 65.1548 105.971 63.1014 103.617 65.1548C101.262 67.2083 103.074 70.9842 103.074 70.9842C103.074 70.9842 104.641 68.3788 107.215 67.3369Z" fill="#291D12"/>
<path id="XMLID_834_" d="M111.243 76.0586C111.569 76.8138 112.695 77.0543 113.757 76.5967C114.82 76.1381 115.418 75.1541 115.092 74.3989C114.766 73.6438 113.641 73.4031 112.578 73.8608C111.514 74.3194 110.917 75.3034 111.243 76.0586Z" fill="#865546"/>
<g id="XMLID_827_">
<path id="XMLID_833_" d="M108.02 74.4851C108.219 74.4851 108.381 74.2226 108.381 73.8988C108.381 73.575 108.219 73.3125 108.02 73.3125C107.82 73.3125 107.658 73.575 107.658 73.8988C107.658 74.2226 107.82 74.4851 108.02 74.4851Z" fill="#2C1B14"/>
<path id="XMLID_832_" d="M103.482 73.6292C103.482 73.9533 103.644 74.2155 103.844 74.2155C104.043 74.2155 104.205 73.9533 104.205 73.6292C104.205 73.3052 104.043 73.043 103.844 73.043C103.644 73.042 103.482 73.3052 103.482 73.6292Z" fill="#2C1B14"/>
<path id="XMLID_831_" d="M104.065 71.7812C104.514 71.7763 104.88 72.123 104.878 71.9236C104.876 71.7243 104.514 71.2647 104.065 71.2696C103.616 71.2745 103.25 71.741 103.252 71.9403C103.254 72.1397 103.616 71.7861 104.065 71.7812Z" fill="#2C1B14"/>
<path id="XMLID_830_" d="M108.284 71.7812C108.733 71.7763 109.099 72.123 109.097 71.9236C109.095 71.7243 108.733 71.2647 108.284 71.2696C107.835 71.2745 107.469 71.741 107.471 71.9403C107.473 72.1397 107.835 71.7861 108.284 71.7812Z" fill="#2C1B14"/>
<path id="XMLID_829_" d="M105.198 73.6289C105.198 73.6289 104.986 75.2228 105.198 75.5056" stroke="#2C1B14" stroke-width="0.5" stroke-miterlimit="10" stroke-linecap="round" stroke-linejoin="round"/>
</g>
</g>
<path id="XMLID_845_" d="M110.683 73.0422C110.683 73.0422 110.518 77.1776 108.635 77.7432C108.635 77.7432 108.991 76.3585 107.25 76.115C105.509 75.8724 104.365 76.0698 104.067 76.2947C103.768 76.5186 103.647 77.4899 103.647 77.4899C103.647 77.4899 103.076 75.1526 103.034 74.094C103.034 74.094 100.962 81.0105 105.2 81.3758C109.439 81.7411 110.985 79.6523 111.157 78.956C111.329 78.2598 112.224 73.0039 112.224 73.0039L110.683 73.0422Z" fill="#291D12"/>
</g>
<path id="XMLID_840_" d="M100.96 69.662C100.96 69.662 108.139 68.9776 116.607 73.0029C117.113 72.4147 117.148 65.6504 109.644 64.5171C107.841 64.2451 106.239 64.0752 105.058 64.3384C100.889 65.2684 100.398 68.9962 100.96 69.662Z" fill="#FF5C01"/>
</g>
<g id="XMLID_867_">
<path id="XMLID_844_" d="M100.719 94.1218C101.879 93.4678 112.813 93.6554 113.504 94.7808C114.194 95.9062 117.136 102.18 117.135 102.993C117.134 103.804 116.644 114.099 116.644 114.099L96.8276 115.588C96.8276 115.588 96.0744 106.434 97.7085 98.8189C97.7085 98.8189 100.243 94.3909 100.719 94.1218Z" fill="#FFEDE2"/>
<path id="XMLID_828_" d="M110.904 95.5808C110.904 95.5808 111.537 88.4168 113.204 84.7773C114.211 84.8657 115.132 85.0288 115.881 85.342C115.881 85.342 113.881 94.1715 114.104 97.0273L110.904 95.5808Z" fill="#FFEDE2"/>
<path id="XMLID_852_" d="M103.589 94.3907L104.889 83.6914H101.628L100.25 95.58L103.589 94.3907Z" fill="#FFEDE2"/>
<path id="XMLID_855_" d="M102.269 97.3867L110.429 97.6538C110.429 97.6538 110.17 103.189 109.925 103.722C109.679 104.255 105.905 105.641 105.492 105.548C105.078 105.456 102.211 104.636 102.011 104.046C101.812 103.455 102.269 97.3867 102.269 97.3867Z" stroke="#BCA68E" stroke-width="0.5" stroke-miterlimit="10"/>
</g>
<g id="XMLID_868_">
<path id="XMLID_863_" d="M125.32 105.832C125.178 106.164 125.598 119.378 125.598 119.378L122.485 120.186L119.934 108.56L125.32 105.832Z" fill="#EF745D"/>
<path id="XMLID_864_" d="M122.967 118.682C122.967 118.682 120.379 121.187 120.379 123.465C120.379 125.742 120.531 126.399 120.91 126.146C121.289 125.893 122.486 123.115 122.486 123.115C122.486 123.115 122.198 127.365 121.282 128.655C120.368 129.945 121.693 130.32 122.393 129.638C123.094 128.954 124.23 126.444 124.23 126.444C124.23 126.444 123.892 127.475 123.621 128.253C123.317 129.125 123.093 129.761 123.414 129.841C123.729 129.92 124.55 129.442 125.134 128.361C125.679 127.354 125.998 125.784 126.071 124.634C126.222 122.25 125.568 118.387 125.568 118.387L122.967 118.682Z" fill="#EF745D"/>
</g>
<g id="XMLID_860_">
<path id="XMLID_854_" d="M115.881 89.6355L117.436 86C117.436 86 120.675 88.7487 121.924 91.9512C123.173 95.1536 127.237 111.284 127.237 111.284L118.906 115.477L115.882 96.6836L115.881 89.6355Z" fill="#FF5C01"/>
<g id="XMLID_857_">
<path id="XMLID_856_" d="M117.135 113.12C117.596 113.383 118.905 116.561 118.905 116.561L127.838 112.145L126.749 106.539L117.135 113.12Z" fill="#F4C06E"/>
</g>
</g>
</g>
<g id="XMLID_890_">
<g id="XMLID_752_">
<g id="XMLID_393_">
<g id="XMLID_394_">
<path id="XMLID_395_" d="M79.547 0H75.5059V136.423H79.547V0Z" fill="#4E3129"/>
<path id="XMLID_396_" d="M79.547 24.0859H75.5059V63.6149H79.547V24.0859Z" fill="#4E3129"/>
</g>
<g id="XMLID_397_">
<g id="XMLID_398_">
<path id="XMLID_399_" d="M154.747 33.2994H0.349609C0.349609 33.2994 34.9124 5.18359 77.5476 5.18359C120.184 5.18458 154.747 33.2994 154.747 33.2994Z" fill="#FF5C01"/>
<path id="XMLID_400_" d="M77.5461 5.18359C77.5461 5.18359 44.6694 14.9126 30.0488 33.2993H56.4598C56.4598 33.2993 59.7231 22.3506 77.5461 5.18359Z" fill="#FFEDE2"/>
<path id="XMLID_401_" d="M77.5469 5.18359C77.5469 5.18359 110.424 14.9126 125.044 33.2993H98.6333C98.6333 33.2993 95.3699 22.3506 77.5469 5.18359Z" fill="#FFEDE2"/>
</g>
<path id="XMLID_402_" d="M26.955 46.0162H3.44599L0.349609 33.3008H30.0504L26.955 46.0162Z" fill="#FF5C01"/>
<path id="XMLID_403_" d="M53.6894 45.7262H32.8005L30.0488 33.0117H56.4402L53.6894 45.7262Z" fill="#FFEDE2"/>
<path id="XMLID_404_" d="M94.2164 46.0162H60.838L56.4414 33.3008H98.6121L94.2164 46.0162Z" fill="#FF5C01"/>
<path id="XMLID_405_" d="M122.288 45.7262H101.367L98.6113 33.0117H125.044L122.288 45.7262Z" fill="#FFEDE2"/>
<path id="XMLID_406_" d="M151.65 46.0162H128.141L125.045 33.3008H154.747L151.65 46.0162Z" fill="#FF5C01"/>
</g>
</g>
<g id="XMLID_751_">
<g id="XMLID_407_">
<path id="XMLID_408_" d="M151.168 134.207H0V138.791H151.168V134.207Z" fill="#61504C"/>
<path id="XMLID_409_" d="M147.634 138.793H3.53516V182.596H147.634V138.793Z" fill="#4E3129"/>
<path id="XMLID_410_" d="M147.634 138.793H3.53516V143.377H147.634V138.793Z" fill="#4E3129"/>
</g>
<g id="XMLID_750_">
<path id="XMLID_731_" d="M69.3826 90.0117H5.83984V134.206H69.3826V90.0117Z" fill="#4E3129"/>
<g id="XMLID_732_">
<g id="XMLID_733_">
<path id="XMLID_749_" d="M65.0699 94.3828H10.1543V111.598H65.0699V94.3828Z" fill="#FFF7F2"/>
<path id="XMLID_748_" d="M65.0699 114.297H10.1543V131.512H65.0699V114.297Z" fill="#FFF7F2"/>
</g>
<path id="XMLID_740_" d="M22.5054 94.3828L10.1543 100.532V94.3828H22.5054Z" fill="#FFFBD6"/>
<path id="XMLID_739_" d="M33.5926 94.3828L10.1543 106.065V103.092L27.6248 94.3828H33.5926Z" fill="#FFFBD6"/>
<path id="XMLID_742_" d="M34.8143 114.297H40.7615L10.1543 129.558V126.594L34.8143 114.297Z" fill="#FFFBD6"/>
<path id="XMLID_744_" d="M65.0702 99.2148V102.178L46.1777 111.597H40.2305L65.0702 99.2148Z" fill="#FFFBD6"/>
<path id="XMLID_743_" d="M65.07 115.824V118.809L39.5821 131.51H33.6035L65.07 115.824Z" fill="#FFFBD6"/>
<path id="XMLID_746_" d="M65.0709 122.461V131.509H46.9219L65.0709 122.461Z" fill="#FFFBD6"/>
</g>
<g id="XMLID_735_">
<path id="XMLID_738_" d="M116.357 134.204H137.541L141.144 103.41H119.96L116.357 134.204Z" fill="#80AFAE"/>
<path id="XMLID_737_" d="M116.357 134.204H137.541L141.144 103.41H119.96L116.357 134.204Z" fill="#665955" fill-opacity="0.8"/>
<path id="XMLID_734_" d="M144.794 134.204H123.609L120.006 103.41H141.19L144.794 134.204Z" fill="#665955"/>
</g>
<g id="XMLID_745_">
<path id="XMLID_736_" d="M112.89 118.809H71.791V134.206H112.89V118.809Z" fill="#665955"/>
<path id="XMLID_741_" d="M111.434 100.566H84.8945V115.821H111.434V100.566Z" fill="#665955"/>
<path id="XMLID_747_" d="M100.813 103.969H95.1387V119.224H100.813V103.969Z" fill="#665955" fill-opacity="0.8"/>
</g>
</g>
</g>
</g>
<g id="XMLID_777_">
<g id="XMLID_767_">
<path id="XMLID_769_" d="M164.941 133.918C164.987 134.444 165.319 139.633 162.777 139.453C160.235 139.273 161.089 133.91 161.089 133.91L164.941 133.918Z" fill="#865546"/>
<path id="XMLID_763_" d="M166.22 130.059C166.22 130.059 166.701 134.371 164.988 134.445C163.275 134.519 161.166 134.782 161.166 134.782L160.77 130.274L166.22 130.059Z" fill="#FF833E"/>
<path id="XMLID_762_" d="M149.09 106.894C148.962 106.514 150.414 103.332 150.414 103.332C150.414 103.332 152.442 103.991 155.731 105.456C158.556 106.714 164.711 113.903 166.048 117.275C167.385 120.647 169.551 130.528 166.283 131.808C163.014 133.087 160.823 131.896 158.253 127.827C155.684 123.757 149.09 106.894 149.09 106.894Z" fill="#FF833E"/>
</g>
<g id="XMLID_766_">
<path id="XMLID_754_" d="M146.264 94.7385C146.264 98.5444 142.197 101.924 139.328 101.924C136.459 101.924 135.875 98.5444 135.875 94.7385C135.875 90.9326 138.2 87.8477 141.069 87.8477C143.939 87.8477 146.264 90.9326 146.264 94.7385Z" fill="#865546"/>
<path id="XMLID_757_" d="M140.466 99.4283C140.466 99.4283 141.118 104.747 140.466 105.773C139.814 106.799 145.493 106.992 145.493 106.992L147.096 103.999C147.096 103.999 145.47 104.04 144.655 98.5035C143.839 92.9672 140.466 99.4283 140.466 99.4283Z" fill="#865546"/>
<path id="XMLID_764_" d="M141.381 100.75L145.024 100.456C145.024 100.456 147.394 97.0099 147.908 95.3978C148.42 93.7846 149.936 90.0768 147.394 90.046C147.394 90.046 148.338 87.9195 147.096 87.113C145.854 86.3064 140.429 86.0863 138.963 83.9608C137.497 81.8343 137.503 80.2221 136.436 81.3949C135.37 82.5678 136.436 85.2807 136.436 85.2807C136.436 85.2807 134.196 81.9814 133.683 83.0811C133.17 84.1809 135.296 87.3331 135.296 87.3331C135.296 87.3331 132.07 86.3064 131.997 87.4062C131.924 88.506 133.39 91.9514 137.789 92.5388L141.381 100.75Z" fill="#2E1A13"/>
<path id="XMLID_765_" d="M141.069 97.1561C141.069 96.2649 140.548 95.543 139.904 95.543C139.261 95.543 138.74 96.2649 138.74 97.1561C138.74 98.0463 139.261 98.7682 139.904 98.7682C140.548 98.7692 141.069 98.0472 141.069 97.1561Z" fill="#865546"/>
</g>
<g id="XMLID_776_">
<path id="XMLID_775_" d="M146.72 170.965L148.851 176.824L145.588 178.755L142.326 172.696L146.72 170.965Z" fill="#865546"/>
<path id="XMLID_774_" d="M152.979 173.228V179.276H156.441L157.573 172.695L152.979 173.228Z" fill="#865546"/>
<path id="XMLID_760_" d="M144.497 130.146C144.497 130.146 138.459 155.415 138.552 160.006C138.645 164.597 142.297 175.221 142.297 175.221L148.199 172.489C148.199 172.489 146.04 163.287 146.199 160.904C146.359 158.521 152.645 146.2 152.645 146.2L152.342 175.953L157.915 175.776C157.915 175.776 163.611 146.679 163.336 138.747C163.046 130.372 161.749 127.035 161.749 127.035L144.497 130.146Z" fill="black"/>
<path id="XMLID_773_" d="M148.578 176.098C148.578 176.098 151.653 177.338 151.972 178.068C152.29 178.799 146.717 182.405 144.637 182.405C142.556 182.405 136.316 182.886 137.082 181.024C137.849 179.163 141.571 179.707 143.213 178.833C144.856 177.959 148.578 176.098 148.578 176.098Z" fill="#2E1A13"/>
<path id="XMLID_772_" d="M152.965 178.191C152.965 178.191 158.085 178.298 159.341 178.782C160.596 179.264 162.528 180.2 162.625 181.293C162.721 182.386 153.83 182.903 151.642 181.954C149.453 181.006 152.965 178.191 152.965 178.191Z" fill="#2E1A13"/>
</g>
<g id="XMLID_770_">
<path id="XMLID_756_" d="M142.518 129.062C142.518 129.062 141.987 135.115 143.474 135.357C144.961 135.599 163.303 131.846 163.638 129.667C163.973 127.487 161.955 124.461 161.955 124.461L142.518 129.062Z" fill="#FF833E"/>
<path id="XMLID_755_" d="M136.436 107.608C137.332 106.854 146.511 102.624 151.082 103.45C156.089 104.356 164.619 124.212 164.416 127.261C164.213 130.309 143.694 133.258 140.818 130.819C137.944 128.379 136.436 107.608 136.436 107.608Z" fill="#FF833E"/>
</g>
<g id="XMLID_771_">
<path id="XMLID_768_" d="M120.898 115.301C120.898 115.301 119.616 108.556 118.953 108.377C118.29 108.198 118.953 112.257 118.953 112.257C118.953 112.257 118.056 111.325 117.699 111.743C117.341 112.162 117.577 112.833 117.577 112.833C117.577 112.833 116.741 112.407 116.562 113.078C116.383 113.749 116.942 114.195 116.942 114.195C116.942 114.195 116.708 114.048 116.394 114.764C116.081 115.48 117.742 117.871 118.953 117.783C120.165 117.694 120.898 115.301 120.898 115.301Z" fill="#865546"/>
<g id="XMLID_761_">
<path id="XMLID_759_" d="M123.973 116.778C123.973 116.778 121.491 114.077 120.834 114.588C120.177 115.098 117.477 117.361 120.031 120.281C122.586 123.2 123.973 116.778 123.973 116.778Z" fill="#FF833E"/>
<path id="XMLID_758_" d="M139.062 106.897C137.45 106.593 136.48 106.387 134.328 111.444C132.175 116.502 131.812 120.064 131.166 120.28C130.52 120.495 125.288 114.672 122.706 115.425C120.124 116.179 117.864 120.698 121.307 123.818C124.751 126.939 129.809 131.489 132.821 129.913C135.834 128.338 140.693 123.476 141.979 119.742C142.762 117.473 144.202 107.864 139.062 106.897Z" fill="#FF833E"/>
</g>
</g>
</g>
</g>
</g>
</svg>
