<svg width="60" height="60" viewBox="0 0 60 60" fill="none" xmlns="http://www.w3.org/2000/svg">
<g id="liquid-cheese 3">
<g clip-path="url(#clip0_743_25781)">
<path id="Vector" d="M60 0H0V60H60V0Z" fill="#5158FF"/>
<g id="Group">
<path id="Vector_2" d="M18.225 52.9351C14.1263 51.3001 9.8475 50.5201 5.65125 51.4801C3.73125 51.9076 1.8375 52.7251 0 53.9851V60.0001H31.6425C27.2963 57.5101 22.9875 54.8926 18.6075 53.0851C18.48 53.0326 18.3525 52.9876 18.225 52.9351Z" fill="#4E55FF"/>
<path id="Vector_3" d="M60 0H0V53.985C1.8375 52.725 3.73125 51.9 5.65125 51.4725C9.8475 50.52 14.1263 51.2925 18.225 52.9275C18.3525 52.98 18.48 53.0325 18.6075 53.0775C22.9875 54.8775 27.2963 57.5025 31.6425 59.9925H60V0Z" fill="#4148FF"/>
<path id="Vector_4" d="M17.94 43.575C18.06 43.635 18.18 43.7025 18.2963 43.7625C25.6538 47.7 32.8725 53.775 40.5525 57.0075C47.085 59.7525 53.6588 59.1975 60 56.2425V0H0V43.1175C1.96125 41.7975 3.99375 41.04 6.04125 40.8C10.065 40.305 14.0888 41.565 17.94 43.575Z" fill="#4148FF"/>
<path id="Vector_5" d="M0 0V32.205C2.085 30.825 4.25625 30.1575 6.4275 30.1275C10.2825 30.0675 14.0475 31.83 17.6512 34.215C17.7638 34.29 17.8725 34.365 17.985 34.44C24.87 39.09 31.6987 45.3975 39.075 48.8475C46.0762 52.125 53.1862 51.4275 59.9962 47.9025V0H0Z" fill="#5259FF"/>
<path id="Vector_6" d="M6.8175 19.455C10.5 19.905 14.0138 22.095 17.3663 24.8625C17.4713 24.945 17.5725 25.035 17.6775 25.1175C24.09 30.4875 30.5288 37.005 37.6013 40.695C45.0563 44.58 52.7288 43.755 60 39.585V0H0V21.24C2.2125 19.77 4.5225 19.1775 6.8175 19.455Z" fill="#6268FF"/>
<path id="Vector_7" d="M60 0H0V10.2225C2.33625 8.655 4.78875 8.16 7.2075 8.7825C10.7175 9.69 13.9763 12.36 17.0813 15.5025C17.1788 15.6 17.2725 15.6975 17.37 15.795C23.31 21.8775 29.3588 28.6125 36.1313 32.535C44.025 37.11 52.2863 36.21 60.0037 31.29V0H60Z" fill="#767BFC"/>
<path id="Vector_8" d="M17.0587 6.4725C22.5262 13.275 28.185 20.1975 34.6537 24.375C42.4762 29.43 50.8275 28.935 58.575 23.9775C59.055 23.67 59.5275 23.3475 60.0037 23.01V0H10.8037C12.9037 1.5975 14.88 3.795 16.7925 6.15C16.8825 6.255 16.9687 6.3675 17.0587 6.4725Z" fill="#767BFB"/>
<path id="Vector_9" d="M60 0H18.675C23.1038 6.435 27.8063 12.3375 33.18 16.215C40.3725 21.405 48.1801 21.8175 55.4926 17.7975C57.0226 16.9575 58.5338 15.9075 60.0038 14.67V0H60Z" fill="#8C91FF"/>
<path id="Vector_10" d="M52.4062 11.61C54.1762 10.815 55.9162 9.7125 57.6037 8.325C58.4174 7.6575 59.2162 6.915 59.9999 6.1125V0H24.1274C26.4862 3.1275 28.9912 5.865 31.7062 8.055C38.2649 13.3575 45.5324 14.7075 52.4062 11.61Z" fill="#7D82FF"/>
<path id="Vector_11" d="M49.3238 5.43C52.1476 4.485 54.9076 2.6475 57.4538 0H30.3413C36.2551 5.325 42.9263 7.575 49.3238 5.43Z" fill="#9DA1FF"/>
</g>
</g>
</g>
<defs>
<clipPath id="clip0_743_25781">
<rect width="60" height="60" rx="30" fill="white"/>
</clipPath>
</defs>
</svg>
