<svg width="207" height="240" viewBox="0 0 207 240" fill="none" xmlns="http://www.w3.org/2000/svg">
<path d="M183 123.647C183 163.741 170.263 210.179 119.729 210.179C69.1947 210.179 0 192.317 0 152.223C0 112.128 51.6734 64.1794 102.207 64.1794C152.742 64.1794 183 83.553 183 123.647Z" fill="#F89C70"/>
<path d="M87.192 196.808C44.7943 182.023 22.4096 135.668 37.1942 93.27C51.9789 50.8724 98.3343 28.4876 140.732 43.2722C183.13 58.0569 205.514 104.412 190.73 146.81C175.945 189.208 129.59 211.592 87.192 196.808Z" fill="#0C7010"/>
<path d="M77.0056 35.7644C78.3223 23.6737 89.1911 14.9398 101.282 16.2564C113.372 17.5731 122.106 28.4419 120.79 40.5326C119.473 52.6232 108.604 61.3572 96.5135 60.0405C84.4229 58.7238 75.6889 47.855 77.0056 35.7644Z" fill="#0C700E"/>
<path d="M78.9964 36.1783C80.0823 25.1793 89.879 17.1431 100.878 18.229C111.877 19.3149 119.913 29.1117 118.827 40.1107C117.741 51.1097 107.945 59.1458 96.9456 58.0599C85.9466 56.974 77.9105 47.1773 78.9964 36.1783Z" fill="#BDFFBE"/>
<path d="M78.8922 38.204C78.8896 37.4053 78.9364 36.6022 79.0318 35.7974L80.8801 36.4419L85.4565 23.3184C86.4735 22.3973 87.5811 21.5901 88.7552 20.8999L83.0693 37.2053L109.01 46.2513L111.911 37.9325L89.3633 30.0698L93.24 18.9526C94.1106 18.6945 94.9999 18.4941 95.9034 18.3561L92.3158 28.644L107.092 33.7968L111.108 22.2804C111.772 22.7912 112.403 23.3376 112.991 23.9212L109.281 34.5601L114.864 36.5068L112.421 43.5117L117.584 45.3121C117.303 46.0451 116.986 46.7546 116.63 47.435L111.657 45.7007L108.096 55.914C107.169 56.3926 106.207 56.7999 105.216 57.1296L108.246 48.4402L78.8922 38.204Z" fill="white"/>
<path d="M98.6466 25.86C98.0447 27.9919 100.125 33.0381 100.125 33.0381C100.125 33.0381 104.294 30.6835 104.896 28.552C105.498 26.4201 104.587 24.0896 102.861 23.3462C101.135 22.6029 99.2484 23.7281 98.6466 25.86Z" fill="#0C700E"/>
<path d="M101.202 28.4874C100.538 28.2014 100.187 27.3049 100.419 26.4851C100.65 25.6649 101.376 25.2319 102.04 25.5178C102.704 25.8038 103.055 26.7004 102.823 27.5206C102.592 28.3404 101.866 28.7734 101.202 28.4874Z" fill="white"/>
<path d="M139.586 82.1552C139.23 81.6778 138.929 81.0381 139.199 80.5073C139.538 79.8407 140.48 79.8464 141.216 79.9735C146.223 80.8362 150.974 82.8521 155.387 85.3681C159.8 87.8844 163.905 90.9013 167.997 93.9106C168.701 94.428 169.491 95.1738 169.259 96.0157C169.12 96.5182 168.628 96.8613 168.118 96.9674C167.608 97.0735 167.079 96.9849 166.569 96.8779C163.511 96.2388 160.62 94.9802 157.808 93.62C152.672 91.135 147.714 88.2816 142.985 85.09C141.739 84.2482 140.485 83.3619 139.586 82.1552Z" fill="#FFC088"/>
<path d="M85.4753 90.3697C87.0803 86.5389 88.9698 82.7627 89.661 78.6673C92.1822 79.2486 94.7035 79.8299 97.2243 80.4111C96.8705 83.1587 96.6287 85.9205 96.4966 88.6875C96.8041 88.3824 97.1077 88.0735 97.4013 87.7535C99.1949 85.7987 100.674 83.5774 102.385 81.5504C104.097 79.5235 106.108 77.6503 108.582 76.6902C109.49 76.3375 110.582 76.1349 111.389 76.6803C111.904 77.0279 112.2 77.6166 112.411 78.2008C113.006 79.8424 113.105 81.6248 113.019 83.3687C112.881 86.1576 112.257 88.983 110.751 91.3341C107.842 95.8749 102.29 97.8494 98.1864 101.349C97.0652 102.305 96.0513 102.952 94.9639 103.946C93.0077 105.801 92.9708 106.294 91.9877 107.082C90.1155 108.582 86.9958 108.095 84.9525 106.838C83.0901 105.693 83.215 104.608 82.9723 102.435C82.5114 98.3074 83.8698 94.2004 85.4753 90.3697Z" fill="#A6BEBD"/>
<path d="M94.8198 81.6205C94.8262 81.4925 94.9351 81.3944 95.0635 81.4009C95.1906 81.406 95.2895 81.5166 95.2829 81.6441C94.9512 88.0774 93.8173 94.4617 91.9115 100.62C91.5038 101.938 91.0303 103.315 90.1233 104.401C90.0164 104.529 89.9033 104.655 89.7894 104.779C89.429 105.175 89.0892 105.55 88.9592 106.016C88.87 106.336 88.9725 106.747 89.2026 106.992C89.2653 107.059 89.3574 107.132 89.4692 107.161C89.4424 106.84 89.4372 106.495 89.54 106.16C89.6717 105.735 90.0379 105.29 90.5595 105.255C90.7292 105.244 90.8894 105.28 91.0301 105.312C91.1128 105.331 91.1955 105.35 91.2792 105.357C91.9671 105.417 92.4833 104.64 92.9125 103.907C94.6238 100.983 97.2028 98.7666 99.6966 96.6235L101.798 94.8175C101.746 95.006 101.712 95.1741 101.673 95.4087C101.666 95.4531 101.672 95.492 101.679 95.5305L99.9988 96.975C97.5336 99.0936 94.9848 101.285 93.3119 104.141C92.9251 104.803 92.2766 105.91 91.2388 105.819C91.1347 105.81 91.0309 105.788 90.9279 105.765C90.8072 105.737 90.6926 105.712 90.5896 105.719C90.2893 105.738 90.065 106.032 89.9832 106.297C89.8797 106.632 89.918 107.007 89.9539 107.37C89.9656 107.487 89.8872 107.596 89.7715 107.62C89.6035 107.655 89.4386 107.645 89.2832 107.59C89.132 107.538 88.9893 107.443 88.8643 107.31C88.5252 106.949 88.3805 106.365 88.5126 105.892C88.6724 105.32 89.0658 104.886 89.4461 104.467C89.5556 104.347 89.6645 104.227 89.7677 104.104C90.6197 103.084 91.075 101.756 91.4685 100.483C93.3628 94.3616 94.4902 88.0152 94.8198 81.6205Z" fill="#E8E8E8"/>
<path d="M101.611 100.976C102.579 94.3761 104.304 87.8755 106.92 81.7399C105.16 83.915 103.38 86.12 102.218 88.6657C100.469 92.4939 100.248 96.9943 101.611 100.976Z" fill="#E1E1E1"/>
<path d="M95.7477 83.1341C94.901 83.3622 93.992 83.3527 93.1502 83.1066C92.1082 82.8016 91.1946 82.1488 90.4335 81.3748C89.9752 80.909 89.5428 80.3348 89.5584 79.6818C89.5694 79.234 89.7912 78.8219 90.0075 78.4295C90.3433 77.821 90.6784 77.2129 91.0142 76.6044C91.1277 76.3983 91.2502 76.1829 91.4514 76.0606C91.7225 75.8955 92.0679 75.9393 92.3791 76.0014C93.6399 76.2529 94.8578 76.7183 95.9649 77.3725C96.6673 77.7875 97.3842 78.3741 97.4724 79.1855C97.513 79.5593 97.4116 79.9324 97.3111 80.2949C97.1482 80.8827 96.9853 81.4709 96.8223 82.0592C96.7621 82.2771 96.6983 82.5011 96.5594 82.6796C96.3651 82.9279 96.0528 83.0518 95.7477 83.1341Z" fill="#0C7010"/>
<path d="M97.6401 69.8633C97.5129 69.8711 97.4003 69.7874 97.3007 69.7076C96.6447 69.1829 95.9884 68.6576 95.3325 68.1324C96.679 67.0355 98.1563 66.0991 99.7231 65.3496C99.1547 66.7217 98.5866 68.0939 98.0181 69.4659C97.9443 69.6447 97.8329 69.8515 97.6401 69.8633Z" fill="#B08762"/>
<path d="M96.4141 75.7969L102.866 78.0467C103.247 78.1795 103.663 77.9784 103.796 77.5976L108.324 64.6119C108.457 64.2311 108.256 63.8147 107.875 63.6819L101.424 61.4323C101.043 61.2995 100.626 61.5005 100.494 61.8814L95.9654 74.867C95.8326 75.2479 96.0336 75.6642 96.4141 75.7969Z" fill="#FF5C01"/>
<path d="M103.165 77.0957C102.865 77.3766 102.385 77.2763 101.994 77.1478C100.498 76.6543 99.0593 76.0032 97.6242 75.3533C97.4666 75.2821 97.3002 75.203 97.2091 75.0563C97.1075 74.893 97.1238 74.6856 97.1455 74.4944C97.458 71.7496 98.2348 69.058 99.4333 66.5686C101.477 67.0681 103.521 67.5673 105.565 68.0669C105.828 68.1316 106.124 68.2197 106.247 68.4622C106.363 68.6935 106.274 68.9709 106.184 69.2139C105.266 71.6842 104.347 74.1543 103.429 76.6241C103.365 76.7944 103.298 76.9716 103.165 77.0957Z" fill="#172F35"/>
<path d="M91.9538 75.8691C92.6747 73.8663 93.9013 70.4586 94.5697 68.6022C94.9157 67.6415 95.8129 67.4625 96.7297 67.5375C97.5469 67.6041 106.118 68.7407 106.121 68.7236C106.049 69.1552 105.739 69.5175 105.372 69.7557C105.004 69.9939 104.58 70.1252 104.162 70.2537C104.444 70.6547 104.728 71.0609 104.902 71.5194C105.075 71.9777 105.127 72.5017 104.939 72.9541C104.75 73.4066 104.285 73.7597 103.797 73.7191C103.947 74.1695 104.099 74.6515 103.978 75.1109C103.858 75.5703 103.345 75.9578 102.911 75.7643C102.888 76.3588 102.779 76.9505 102.588 77.5142C101.331 77.6199 99.6445 77.6472 99.0267 78.7473C98.7526 78.6475 98.5466 78.7882 98.4995 78.5002C98.4959 78.4789 99.0292 78.7688 99.0267 78.7473C98.136 79.1345 97.2132 79.442 96.4192 80.0161C94.5523 79.6649 92.7584 78.8214 91.3971 77.512C91.5649 76.958 91.7593 76.409 91.9538 75.8691Z" fill="#B08762"/>
<path d="M174.633 100.993C176.354 104.986 175.88 109.596 174.706 113.784C172.995 119.887 169.904 125.512 166.511 130.866C164.015 134.803 161.314 138.663 157.896 141.834C154.478 145.006 150.275 147.474 145.668 148.19C138.662 149.28 131.667 146.259 125.632 142.538C119.597 138.816 113.963 134.285 107.32 131.808C105.071 130.969 102.399 130.062 101.688 127.769C101.203 126.207 101.843 124.54 102.482 123.034C104.747 117.685 107.105 112.376 109.553 107.109C111.959 101.936 114.472 96.7694 117.852 92.1723C121.231 87.5754 125.552 83.5372 130.788 81.2705C133.349 80.1618 136.145 79.4882 138.928 79.7029C141.829 79.9267 144.566 81.0945 147.211 82.3059C152.924 84.9219 158.507 87.8191 163.936 90.9839C168.229 93.4878 172.665 96.4286 174.633 100.993Z" fill="#FF5C01"/>
<path d="M136.37 84.2892C144.63 87.7202 152.516 92.0488 159.847 97.1735C160.321 97.5049 160.268 98.2338 159.747 98.4862C158.952 98.8721 158.127 99.4484 157.839 99.655C150.426 104.98 147.259 114.44 144.13 122.591C141.556 129.294 139.433 136.16 137.318 143.018C137.04 143.922 136.652 144.956 135.751 145.241C135.134 145.435 134.472 145.203 133.868 144.971C122.315 140.525 111.138 135.105 100.491 128.788C105.388 112.818 111.611 99.3125 120.606 89.314C121.807 87.9798 128.482 83.5533 130.234 83.1632C132.298 82.7035 134.417 83.478 136.37 84.2892Z" fill="#FF5C01"/>
<path d="M157.564 103.634C158.866 102.112 160.666 100.527 162.351 99.4454C164.036 98.3636 166.057 97.7004 168.044 97.9456C171.503 98.3726 174.182 101.566 174.802 104.995C173.384 102.517 170.489 101.088 167.634 101.028C164.779 100.968 161.995 102.138 159.718 103.863C157.442 105.587 155.622 107.84 153.977 110.175C146.479 120.813 142.254 133.394 138.963 145.986C142.224 130.659 147.381 115.544 157.564 103.634Z" fill="#FFC088"/>
<path d="M95.4779 118.623L127.608 129.827L125.226 136.659L93.0957 125.455L95.4779 118.623Z" fill="#E1E1E1"/>
<path d="M108.673 76.9141C109.041 76.3776 109.448 75.8333 110.03 75.5426C111.24 74.9386 112.652 75.6252 113.972 75.9201C116.415 76.4662 118.994 75.5742 121.016 74.0838C124.907 77.8098 130.16 80.0987 135.469 78.208C135.762 78.7656 136.085 79.307 136.436 79.8266C138.239 82.5031 140.702 84.6754 143.325 86.5563C144.237 87.2104 145.216 87.8852 145.672 88.9105C146.473 90.7108 145.369 92.7373 144.357 94.4278C137.836 105.315 133.668 117.601 132.194 130.205C131.952 132.281 130.014 133.719 127.949 133.399C115.521 131.473 103.531 126.744 93.1487 119.643C101.549 106.923 100.053 89.4875 108.673 76.9141Z" fill="#A6BEBD"/>
<path d="M122.101 92.3443C124.807 94.384 127.923 95.8777 131.208 96.7083C131.642 95.4746 132.075 94.2415 132.509 93.0079C129.453 91.649 126.46 90.1499 123.542 88.5155C123.062 89.7923 122.581 91.0682 122.101 92.3443Z" fill="white"/>
<path d="M126.983 78.5582C124.205 80.0151 123.002 83.2838 122.018 86.2622C117.254 100.682 112.162 114.993 106.747 129.181C105.506 128.626 104.265 128.07 103.024 127.515C108.023 114.155 113.023 100.795 118.022 87.4348C119.381 83.8035 120.762 80.1293 122.977 76.947C124.312 77.4839 125.648 78.0209 126.983 78.5582Z" fill="#E1E1E1"/>
<path d="M110.853 110.671C113.781 103.411 116.809 95.9028 118.875 88.1367C120.007 83.8838 121.952 80.9114 124.048 77.8634C124.18 77.9458 124.315 78.0224 124.45 78.0982C122.37 81.1221 120.438 84.0658 119.323 88.2562C117.249 96.0496 114.216 103.571 111.283 110.844C110.34 113.183 109.364 115.602 108.431 118.004C107.254 121.033 106.037 124.164 105.404 127.396C105.379 127.521 105.257 127.603 105.131 127.578C105.121 127.576 105.11 127.573 105.099 127.57C104.993 127.532 104.926 127.421 104.949 127.306C105.59 124.034 106.814 120.884 107.998 117.836C108.934 115.431 109.909 113.011 110.853 110.671Z" fill="#A6BEBD"/>
<path d="M136.381 79.6604C133.35 80.6868 130.008 80.7733 126.929 79.9039C123.849 79.035 121.046 77.2145 118.999 74.7547C119.812 74.439 120.541 73.9103 121.094 73.2357C122.969 74.9821 125.169 76.4556 127.65 77.0971C130.131 77.7386 132.921 77.4678 135.018 75.9948C135.14 77.3079 135.616 78.5866 136.381 79.6604Z" fill="#E1E1E1"/>
<path d="M95.1517 163.29C95.9297 163.561 98.9018 164.598 99.6798 164.869C105.419 166.87 106.71 178.134 102.562 190.026C98.4152 201.919 90.401 209.938 84.6616 207.936C83.8836 207.665 80.9115 206.629 80.1335 206.357C74.3945 204.356 73.1037 193.092 77.2509 181.2C81.3981 169.307 89.4127 161.289 95.1517 163.29Z" fill="black"/>
<path d="M89.023 202.325C86.3454 201.391 86.5438 193.84 89.4662 185.46C92.3886 177.079 96.9284 171.043 99.606 171.976C102.284 172.91 102.085 180.461 99.1629 188.841C96.2404 197.222 91.7007 203.259 89.023 202.325Z" fill="#A6BEBD"/>
<path d="M92.0289 197.224C89.7866 196.442 89.9527 190.119 92.4 183.101C94.8473 176.083 98.649 171.028 100.891 171.81C103.134 172.591 102.968 178.915 100.52 185.933C98.0729 192.951 94.2713 198.006 92.0289 197.224Z" fill="black"/>
<path d="M72.3461 133.574C78.5059 129.669 86.1835 128.231 93.3385 129.644C100.494 131.056 107.05 135.302 111.264 141.255C112.779 143.394 114.024 145.824 114.217 148.437C114.502 152.276 112.523 155.876 110.606 159.213C105.542 168.034 100.478 176.855 95.4136 185.676C94.8247 186.702 94.2043 187.763 93.2279 188.43C91.9465 189.306 90.2846 189.35 88.735 189.263C77.2086 188.617 66.7829 182.552 56.8631 176.647C54.8611 175.456 52.6894 174.047 52.0952 171.794C51.7704 170.561 51.9805 169.257 52.2272 168.006C53.4738 161.684 55.6124 155.539 58.5605 149.809C61.8472 143.421 66.278 137.421 72.3461 133.574Z" fill="#FF8E4F"/>
<path d="M104.016 157.016C106.89 153.717 110.795 149.683 115.478 149.995C119.427 150.258 122.691 153.513 124.074 157.221C125.458 160.93 125.302 165.021 124.907 168.959C123.85 179.511 119.712 189.781 113.08 198.056C104.105 196.002 96.9476 194.094 88.0126 190.555C87.4722 190.341 90.8756 180.448 91.226 179.502C92.5763 175.856 94.1978 172.312 96.0703 168.905C98.2797 164.886 100.761 160.771 103.82 157.241C103.884 157.167 103.95 157.091 104.016 157.016Z" fill="#F46B29"/>
<path d="M103.225 159.628C99.6535 163.72 97.8302 169.103 97.1613 174.493C96.4924 179.883 96.8967 185.341 97.3015 190.758C97.3693 191.666 97.6769 192.83 98.5851 192.895C99.2612 192.944 99.765 192.309 100.138 191.743C102.93 187.506 105.736 183.245 107.816 178.616C109.896 173.987 111.237 168.931 110.94 163.865C110.843 162.22 110.545 160.513 109.553 159.199C108.56 157.884 106.707 157.102 105.205 157.779L103.225 159.628Z" fill="#FF8E4F"/>
<path d="M83.2218 186.494C86.9924 187.358 91.177 188.17 94.5444 186.266C94.4894 187.93 93.243 189.377 91.7472 190.108C90.2519 190.84 88.5402 190.976 86.8752 191.002C74.8025 191.187 63.2513 186.249 52.6229 180.521C52.6332 178.711 53.7229 181.464 53.7337 179.655C62.641 186.025 72.5481 184.047 83.2218 186.494Z" fill="#F46B29"/>
<path d="M121.489 204.448C114.572 206.48 106.871 205.687 101.062 201.417C108.072 200.679 115.151 201.363 121.489 204.448Z" fill="#172F35"/>
<path d="M50.1249 138.188C54.6224 133.205 58.2321 127.437 61.2259 121.415C64.7658 114.296 67.4848 106.804 70.1964 99.33C76.1259 100.715 81.7903 103.227 86.7975 106.692C78.1152 119.406 68.4577 132.368 55.8049 142.177C53.8575 140.95 51.9829 139.572 50.1249 138.188Z" fill="#FFC088"/>
<path d="M123.733 53.8216C120.764 58.0148 119.814 63.5736 121.223 68.515C121.519 69.5514 121.934 70.594 122.705 71.3467C124.131 72.7391 126.352 72.7966 128.346 72.7681C130.589 72.736 132.927 72.6814 134.917 71.6462C136.793 70.6707 138.153 68.919 139.17 67.0655C140.384 64.8525 141.206 62.282 140.695 59.8095C140.059 56.7296 137.435 54.3644 134.52 53.1833C131.606 52.0022 128.4 51.8067 125.261 51.6256L123.733 53.8216Z" fill="#FF5C01"/>
<path d="M120.339 74.5461C120.661 74.343 120.972 74.1261 121.27 73.8945C123.328 72.291 124.864 70.1275 126.369 67.9964C128.838 68.8992 131.308 69.8025 133.777 70.7053C133.606 72.8771 134.057 75.0525 134.921 77.0608C130.081 78.6812 124.656 77.13 120.339 74.5461Z" fill="#B08762"/>
<path d="M122.59 59.463C122.638 59.3808 122.686 59.2991 122.736 59.2187C123.108 58.6143 123.677 57.9416 123.57 57.1754C123.403 55.9817 123.571 55.7641 124.977 53.9047L126.274 52.5291C128.611 51.2823 131.481 51.3054 133.991 52.1504C136.501 52.9954 138.694 54.5924 140.649 56.3782C141.301 56.9733 141.978 57.6998 141.958 58.582C141.946 59.0833 141.706 59.5473 141.467 59.9879C140.518 61.7406 139.507 63.4592 138.496 65.177C137.681 66.5614 136.851 67.9661 135.68 69.0653C134.194 70.4599 132.266 71.267 130.383 72.0456C129.616 72.3625 128.835 72.6834 128.009 72.754C126.431 72.8892 124.874 72.0655 123.849 70.8587C122.825 69.6519 122.276 68.1058 121.982 66.5503C121.667 64.8844 121.621 63.1678 121.847 61.4872C121.943 60.7691 122.23 60.0897 122.59 59.463Z" fill="#B08762"/>
<path d="M134.072 61.4868C133.479 60.2194 132.453 59.3692 131.158 59.0326C131.179 58.8224 131.148 58.607 131.06 58.4143C132.575 58.7442 133.86 59.9053 134.431 61.3464C134.303 61.3662 134.183 61.4194 134.072 61.4868Z" fill="#172F35"/>
<path d="M131.262 62.7657C131.389 62.8248 131.528 62.8814 131.666 62.8552C131.792 62.8314 131.896 62.7406 131.977 62.6404C132.135 62.4434 132.23 62.1953 132.242 61.9423C132.254 61.6949 132.183 61.4381 132.018 61.2537C131.853 61.0692 131.588 60.9686 131.348 61.0305C131.053 61.1068 130.865 61.3906 130.732 61.6648C130.67 61.7927 130.613 61.9285 130.618 62.0703C130.623 62.2369 130.715 62.3917 130.838 62.5052C130.96 62.6178 131.111 62.6953 131.262 62.7657Z" fill="#0C4E5F"/>
<path d="M131.067 61.6435C131.19 61.5361 131.375 61.465 131.516 61.548C131.666 61.6362 131.684 61.8458 131.654 62.0165C131.631 62.1377 131.592 62.2585 131.516 62.3556C131.441 62.4528 131.325 62.5234 131.202 62.5231C131.009 62.5226 130.849 62.3398 130.833 62.1481C130.818 61.9566 130.922 61.7696 131.067 61.6435Z" fill="#172F35"/>
<path d="M131.716 62.0174C131.66 62.0019 131.617 61.9517 131.594 61.8976C131.549 61.7917 131.581 61.6434 131.689 61.6036C131.754 61.5797 131.831 61.6019 131.878 61.6519C131.926 61.7021 131.945 61.7757 131.935 61.8445C131.919 61.9482 131.817 62.0454 131.716 62.0174Z" fill="white"/>
<path d="M125.453 57.0094C124.95 56.8339 124.405 56.9788 124.038 57.3267C124.034 57.3301 124.029 57.3331 124.025 57.3365C123.943 57.2693 123.919 57.1358 123.966 57.0344C124.022 56.9123 124.144 56.8345 124.263 56.7715C124.506 56.6414 124.77 56.5418 125.045 56.5135C125.319 56.4853 125.607 56.5329 125.841 56.6797C125.995 56.7762 126.129 56.9263 126.152 57.1071C126.166 57.2213 126.12 57.3401 126.039 57.4186C125.885 57.238 125.689 57.0916 125.453 57.0094Z" fill="#172F35"/>
<path d="M124.782 59.3547C124.858 59.1966 124.852 59.0106 124.808 58.8412C124.747 58.6 124.579 58.3547 124.332 58.3264C124.165 58.3075 123.999 58.3945 123.885 58.5179C123.771 58.6409 123.699 58.7968 123.632 58.9506C123.551 59.1361 123.477 59.3592 123.584 59.531C123.674 59.6771 123.864 59.726 124.036 59.7303C124.331 59.737 124.656 59.6204 124.782 59.3547Z" fill="#0C4E5F"/>
<path d="M124.043 58.7841C124.131 58.7324 124.25 58.7029 124.33 58.7662C124.391 58.8149 124.407 58.9012 124.411 58.9798C124.417 59.1003 124.407 59.2254 124.35 59.3315C124.293 59.4375 124.182 59.5209 124.061 59.5177C123.897 59.513 123.769 59.3412 123.777 59.1769C123.786 59.0122 123.901 58.8677 124.043 58.7841Z" fill="#172F35"/>
<path d="M124.382 59.0148C124.339 59.003 124.307 58.965 124.289 58.9234C124.255 58.843 124.279 58.7302 124.361 58.7C124.411 58.6818 124.469 58.6989 124.505 58.7369C124.541 58.7748 124.556 58.8311 124.548 58.883C124.536 58.9623 124.459 59.0358 124.382 59.0148Z" fill="white"/>
<path d="M136.176 61.2902C134.717 58.9603 127.907 57.0154 123.893 55.2674C124.119 54.8898 124.438 54.6172 124.977 53.9047L126.274 52.5291C128.611 51.2823 131.481 51.3054 133.991 52.1504C136.501 52.9954 138.694 54.5924 140.649 56.3782C141.301 56.9733 141.978 57.6998 141.958 58.582C141.946 59.0833 141.706 59.5473 141.467 59.9879C140.518 61.7406 139.507 63.4592 138.496 65.177C137.681 66.5614 136.851 67.9661 135.68 69.0653C135.227 69.4907 134.729 69.8568 134.207 70.1887C135.928 67.0266 137.496 64.0244 136.176 61.2902Z" fill="#172F35"/>
<path d="M140.885 48.63C143.042 50.1105 144.881 52.1526 145.761 54.6165C146.661 57.1367 146.508 59.9265 145.908 62.535C145.363 64.9028 144.442 67.2153 142.956 69.1369C141.369 71.1878 139.098 72.77 136.526 73.186C136.09 73.2566 135.632 73.2368 135.238 73.0375C134.143 72.4847 134.325 71.2297 134.626 70.2351C135.302 67.9962 136.331 65.639 137.623 63.5377C138.558 62.0188 137.909 60.0188 136.255 59.3534C131.775 57.5516 127.269 55.9292 122.807 54.0071C122.6 53.9183 122.379 53.8165 122.271 53.6194C122.143 53.3849 122.217 53.0951 122.304 52.8424C123.503 49.3689 126.816 46.8327 130.43 46.1623C134.043 45.4917 137.855 46.5502 140.885 48.63Z" fill="#FF5C01"/>
<path d="M135.56 73.2524C135.845 73.3518 136.139 73.3485 136.398 73.2412C136.516 73.1925 136.572 73.0569 136.523 72.9388C136.474 72.8201 136.338 72.7642 136.22 72.8131C136.005 72.9018 135.796 72.8533 135.657 72.7927C135.386 72.6777 135.149 72.4348 135.04 72.1585C134.833 71.6359 134.933 71.0327 135.071 70.4589C135.473 68.7992 136.157 67.2374 137.107 65.8183C137.207 65.6683 137.312 65.5179 137.416 65.3665C138.13 64.3318 138.869 63.2618 138.787 61.9949C138.726 61.0425 138.162 60.0895 137.239 59.3795C136.432 58.7579 135.485 58.3886 134.57 58.0311L124.7 54.1765C123.858 53.8476 122.905 53.4752 122.244 52.798C122.155 52.7072 122.007 52.7045 121.916 52.7943C121.825 52.8836 121.823 53.0304 121.912 53.1219C122.643 53.871 123.646 54.2625 124.531 54.6081L134.401 58.4626C135.286 58.8086 136.201 59.1656 136.956 59.7469C137.773 60.3749 138.272 61.2049 138.324 62.0245C138.396 63.1307 137.704 64.1331 137.034 65.1031C136.928 65.2563 136.823 65.4083 136.721 65.5597C135.741 67.0246 135.034 68.6366 134.62 70.3498C134.471 70.9664 134.353 71.684 134.608 72.3288C134.763 72.7226 135.088 73.0556 135.475 73.2197C135.504 73.2314 135.532 73.2425 135.56 73.2524Z" fill="#A6BEBD"/>
<path d="M126.877 61.8689L124.848 62.8826L124.849 63.8974" stroke="#172F35" stroke-width="0.5" stroke-linecap="round"/>
<path d="M134.868 46.9024C139.153 47.4192 143.042 50.4398 144.605 54.4633C146.167 58.4868 145.334 63.3407 142.52 66.6136C144.336 63.6225 144.884 59.8885 144.004 56.5018C143.124 53.1152 140.828 50.1201 137.786 48.3907L134.868 46.9024Z" fill="#FFC088"/>
<path d="M140.33 89.6571C139.917 89.1343 139.14 89.0137 138.505 89.213C137.869 89.4121 137.349 89.8703 136.885 90.3483C134.403 92.9059 132.972 96.3348 132.26 99.8269C131.549 103.319 131.506 106.908 131.466 110.472C126.548 111.545 121.544 112.222 116.519 112.495C123.042 116.476 130.948 118.14 138.522 117.127C136.81 108.75 139.032 100.145 140.548 91.7301C140.675 91.0235 140.775 90.2197 140.33 89.6571Z" fill="#E1E1E1"/>
<path d="M122.507 124.477C120.48 124.296 118.318 123.979 116.812 122.611C115.587 121.497 114.996 119.862 114.505 118.281C114.003 116.666 113.643 114.672 114.843 113.479C115.926 112.403 117.682 112.584 119.198 112.753C123.915 113.279 128.725 112.946 133.323 111.775C133.77 108.581 133.504 105.337 133.479 102.112C133.455 98.8871 133.695 95.5701 135.068 92.6518C136.442 89.7334 139.153 87.2687 142.365 86.9805C143.427 86.8851 144.555 87.0467 145.414 87.6767C146.628 88.567 147.053 90.1644 147.318 91.6462C148.945 100.741 145.488 108.466 144.649 118.948C144.525 120.491 143.586 121.943 142.404 122.943C141.085 124.06 139.258 124.314 137.536 124.47C132.54 124.922 127.503 124.924 122.507 124.477Z" fill="#A6BEBD"/>
<path d="M118.341 119.726C118.182 120.648 117.778 121.618 116.944 122.044C116.386 122.33 115.728 122.322 115.101 122.308C114.542 122.296 113.958 122.277 113.467 122.011C112.956 121.734 112.614 121.224 112.35 120.706C111.683 119.394 111.391 117.895 111.517 116.429C111.588 115.603 111.819 114.738 112.431 114.178C113.014 113.645 113.865 113.479 114.648 113.585C115.97 113.765 117.137 114.67 117.778 115.839C118.42 117.009 118.567 118.412 118.341 119.726Z" fill="#E1E1E1"/>
<path d="M117.488 122.805C117.567 122.833 117.659 122.817 117.724 122.754C118.118 122.38 118.401 122.505 118.954 122.801C119.343 123.009 119.785 123.245 120.357 123.247C122.494 123.259 124.661 123.507 126.757 123.747C128.82 123.982 130.954 124.226 133.069 124.248C137.073 124.288 141.196 123.862 144.236 120.505C144.322 120.41 144.315 120.263 144.22 120.177C144.126 120.091 143.978 120.099 143.893 120.193C140.976 123.415 136.969 123.823 133.074 123.784C130.983 123.763 128.862 123.52 126.811 123.286C124.702 123.045 122.523 122.795 120.361 122.784C119.903 122.781 119.532 122.583 119.174 122.392C118.652 122.113 118.06 121.797 117.406 122.418C117.313 122.506 117.309 122.653 117.398 122.745C117.423 122.774 117.454 122.793 117.488 122.805Z" fill="#E8E8E8"/>
<path d="M104.095 127.298L118.302 132.253C121.066 133.768 125.371 133.662 126.88 136.256C129.251 140.329 127.538 147.577 125.558 151.536C125.201 152.25 124.747 152.961 124.008 153.357C122.502 154.163 120.512 153.4 118.786 152.803C115.605 151.702 112.224 151.189 108.917 151.305C106.949 151.374 104.795 151.615 103.11 150.555C101.841 149.756 101.16 148.401 100.55 147.122C99.1209 144.126 97.6926 141.069 97.2905 137.885C96.8881 134.702 97.659 131.319 100.117 129.225C101.224 128.283 102.603 127.662 104.095 127.298Z" fill="#A6BEBD"/>
<path d="M105.181 133.075C106.454 132.313 107.949 131.553 109.357 132.021C110.407 132.371 111.123 133.322 111.728 134.248C115.934 140.699 117.929 148.327 119.351 155.896C122.355 171.876 123.092 188.281 121.532 204.467C114.804 202.938 107.957 201.931 101.074 201.458C102.05 183.571 103.014 165.481 99.7397 147.868C99.1013 144.434 98.3503 140.669 100.051 137.618C101.176 135.599 103.197 134.263 105.181 133.075Z" fill="#A6BEBD"/>
<path d="M124.216 153.199C123.02 154.022 121.355 153.955 120.079 153.263C118.803 152.571 117.886 151.341 117.303 150.012C116.72 148.682 116.436 147.245 116.157 145.821C117.787 149.175 120.731 151.87 124.216 153.199Z" fill="#172F35"/>
<path d="M119.177 204.099C119.196 204.106 119.216 204.11 119.236 204.111C119.364 204.121 119.475 204.025 119.485 203.897C120.462 190.803 119.908 176.527 117.789 160.256C117.254 156.146 116.51 151.879 113.86 148.821C113.762 148.708 113.728 148.562 113.766 148.422C113.802 148.286 113.899 148.182 114.033 148.136L114.733 147.895C115.071 147.778 115.324 147.501 115.41 147.153C115.493 146.813 115.401 146.461 115.164 146.21C114.261 145.253 113.219 144.448 112.067 143.817C112.861 143.914 113.634 144.131 114.366 144.46C114.591 144.559 114.856 144.502 115.019 144.31C115.182 144.118 115.199 143.849 115.061 143.641C114.479 142.76 113.802 141.943 113.048 141.206L120.275 145.381C121.416 146.04 122.596 146.72 123.936 146.97C125.471 147.256 126.779 146.902 127.619 145.975C127.705 145.88 127.698 145.734 127.603 145.648C127.509 145.562 127.362 145.568 127.276 145.664C126.342 146.694 124.991 146.695 124.021 146.514C122.758 146.279 121.614 145.618 120.507 144.979L110.111 138.974C109.999 138.91 109.858 138.948 109.794 139.059C109.73 139.17 109.768 139.312 109.879 139.376C111.791 140.48 113.449 142.044 114.675 143.898C114.708 143.947 114.683 143.99 114.666 144.01C114.649 144.031 114.609 144.064 114.556 144.037C113.783 143.69 112.965 143.461 112.126 143.354C111.9 143.325 111.693 143.455 111.622 143.67C111.552 143.886 111.644 144.113 111.845 144.223C112.954 144.832 113.958 145.607 114.828 146.528C114.958 146.666 115.006 146.854 114.96 147.042C114.912 147.237 114.771 147.392 114.583 147.457L113.882 147.698C113.605 147.794 113.394 148.02 113.318 148.302C113.242 148.589 113.313 148.898 113.51 149.125C116.076 152.085 116.804 156.276 117.33 160.316C119.445 176.555 119.998 190.799 119.023 203.862C119.014 203.97 119.08 204.065 119.177 204.099Z" fill="#E8E8E8"/>
<path d="M50.1931 109.939C52.2844 107.105 54.5 104.165 57.6682 102.625C61.9134 100.561 66.9697 101.434 71.4943 102.78C80.3724 105.422 88.8799 109.83 95.2995 116.507C97.5087 118.805 99.4951 121.43 100.401 124.485C101.552 128.364 100.857 132.546 99.7821 136.446C96.0437 150.004 87.9617 161.879 81.8666 174.553C80.0493 178.332 78.3791 182.663 79.7859 186.614C80.2191 187.83 80.8733 189.348 79.9508 190.251C79.2717 190.916 78.1652 190.743 77.2423 190.52C63.7495 187.251 50.2073 182.577 39.5743 173.651C33.567 168.608 28.4612 161.884 27.5112 154.098C26.8474 148.656 28.2762 143.122 30.6434 138.177C33.0107 133.231 36.2862 128.786 39.542 124.374C43.0922 119.563 46.6427 114.751 50.1931 109.939Z" fill="#FF5C01"/>
<path d="M35.8118 144.968C39.7038 141.257 45.198 138.927 50.4953 139.852C55.3733 140.704 59.5291 144.236 61.8814 148.594C64.2332 152.952 64.9375 158.047 64.6997 162.993C64.462 167.939 63.3308 172.794 62.1981 177.614C61.7087 179.696 60.9679 182.08 58.9743 182.855C57.1928 183.547 55.2253 182.613 53.577 181.646C47.9976 178.372 42.8166 174.419 38.1859 169.901C34.1846 165.999 30.3846 161.116 30.5429 155.529C30.6571 151.493 32.8901 147.753 35.8118 144.968Z" fill="#FF8E4F"/>
<path d="M92.7177 123.01C93.5838 122.273 94.8964 122.525 95.4499 123.518C97.1394 126.55 97.3752 130.37 96.6036 133.809C95.6421 138.096 93.3217 141.938 91.0421 145.688C88.3041 144.209 89.464 144.835 86.726 143.357C88.0279 140.664 89.2182 137.872 89.6231 134.91C89.9698 132.374 89.6838 129.675 88.4988 127.432C88.1362 126.745 88.3961 125.908 89.0751 125.532C90.3687 124.815 91.5909 123.969 92.7177 123.01Z" fill="white"/>
<path d="M57.5561 107.192C57.3828 107.845 57.277 108.517 57.2408 109.192C57.2119 109.726 56.8944 110.204 56.4025 110.416C53.5271 111.652 50.9757 113.638 49.0787 116.128C48.6001 116.112 48.2692 115.587 48.2843 115.108C48.2993 114.63 48.56 114.198 48.8128 113.792C50.5004 111.081 53.5733 108.106 56.5854 106.41C57.1077 106.117 57.7098 106.612 57.5561 107.192Z" fill="white"/>
<path d="M82.5835 169.462C84.3312 163.175 87.7481 157.507 90.9401 151.815C94.1327 146.123 97.1848 140.178 98.0844 133.714C98.9841 127.251 97.3757 120.098 92.4838 115.779C97.849 119.717 99.69 126.28 99.0555 132.905C98.4209 139.53 95.4134 146.151 92.0121 151.871C88.6109 157.591 85.0856 163.295 82.5835 169.462Z" fill="#FFC088"/>
<path d="M68.3336 104.452C68.9591 102.755 69.5776 101.055 70.1942 99.3556C76.6787 100.87 82.873 103.617 88.3486 107.407C87.5188 108.621 86.6775 109.838 85.8298 111.055C81.4172 118.648 62.6523 147.129 62.6523 147.129L55.4573 142.513L78.2382 110.131C74.7709 108.586 71.4595 106.669 68.3336 104.452Z" fill="#FF8E4F"/>
<path d="M68.495 103.989C73.1093 107.261 78.1661 109.824 83.5506 111.379C75.6976 122.54 66.9036 133.571 55.8049 142.175C53.8574 140.948 51.9828 139.57 50.1249 138.187C54.6224 133.204 58.2321 127.435 61.2258 121.414C64.0297 115.775 66.3169 109.902 68.495 103.989Z" fill="#FFC088"/>
<path d="M56.8455 88.6452C56.4134 89.8842 56.7979 91.1452 57.7048 91.4614C58.6117 91.7777 59.6969 91.0292 60.1289 89.7901C60.561 88.5511 60.1761 87.29 59.2697 86.9739C58.3628 86.6576 57.2776 87.4061 56.8455 88.6452Z" fill="#172F35"/>
<path d="M51.5405 87.9522C51.5669 88.3723 51.8666 88.7363 52.228 88.9524C52.5894 89.1685 53.009 89.2616 53.4202 89.3514C55.4455 89.7947 57.4713 90.2382 59.4967 90.6816C59.6977 89.9538 59.8988 89.2261 60.1001 88.498C58.2422 87.967 56.3844 87.436 54.5264 86.9044C53.9275 86.7334 53.3005 86.5608 52.69 86.6841C52.0802 86.8081 51.5016 87.3304 51.5405 87.9522Z" fill="#172F35"/>
<path d="M59.6818 87.3206C62.187 88.4561 64.4597 88.3383 66.957 87.1853C68.44 86.5004 69.7688 85.4309 71.3652 85.0829C73.9837 84.5119 76.5491 85.9912 78.9754 87.1304C82.5602 88.8134 86.5501 89.9155 89.4315 92.6323C91.5569 94.6358 92.8659 97.3283 94.4035 99.8117C97.0557 104.095 100.51 107.875 104.517 110.928C103.368 111.557 102.359 112.462 101.494 113.507C98.1261 111.504 94.3554 110.096 90.5912 108.941C84.7285 107.142 78.6751 105.823 73.1448 103.172C70.8712 102.082 68.6662 100.744 66.9961 98.8548C65.6473 97.3285 64.6921 95.4945 63.4116 93.9106C62.1312 92.3268 60.8275 91.3137 58.7923 91.2309C57.9091 89.9925 58.5201 87.948 59.6818 87.3206Z" fill="#F46B29"/>
<path d="M92.8051 101.889C92.5935 101.764 92.4007 101.603 92.2583 101.403C91.5532 100.412 92.3058 98.9563 91.8155 97.8438C92.9469 99.5582 94.0783 101.273 95.2097 102.987C94.5913 102.349 93.5709 102.341 92.8051 101.889Z" fill="#FFC088"/>
<path d="M96.7584 115.251C96.3675 114.88 96.2952 114.271 96.6024 113.827C96.8736 113.435 97.0666 112.989 97.162 112.522C97.2733 111.977 97.2563 111.405 97.4431 110.882C97.7146 110.123 98.3739 109.575 99.0337 109.111C99.5197 108.769 100.048 108.442 100.64 108.39C101.53 108.31 102.341 108.858 103.065 109.381C103.536 109.72 104.058 110.164 104.016 110.743C103.997 111.01 103.854 111.252 103.698 111.471C103.073 112.346 102.171 113.021 101.155 113.374C100.524 113.593 99.7798 113.742 99.4398 114.317C99.1903 114.74 99.2468 115.288 99.4552 115.733C99.6631 116.178 100.003 116.545 100.326 116.915C102.955 119.929 104.741 123.599 106.014 127.39C106.047 127.489 106.077 127.591 106.101 127.694C106.105 127.707 106.112 127.718 106.115 127.731C106.18 127.973 106.208 128.238 106.108 128.467C105.937 128.857 105.448 129.009 105.024 128.967C104.71 128.935 104.355 128.76 104.325 128.446C104.303 128.229 104.448 128.036 104.563 127.85C104.677 127.669 104.765 127.472 104.832 127.269C103.058 122.741 100.282 118.605 96.7584 115.251Z" fill="white"/>
<path d="M66.9211 95.4266C66.4995 93.5814 67.2784 91.687 68.2017 90.0349C68.8711 88.8364 69.6932 87.6103 70.9639 87.0908C72.1356 86.612 73.4667 86.8281 74.697 87.1249C78.5855 88.0633 82.2932 89.7466 85.5595 92.056C87.5895 93.4913 89.5809 95.4093 89.8353 97.8825C90.1028 100.483 88.2836 103.574 85.8799 104.601C83.4762 105.629 81.0215 104.644 78.5337 103.84C75.6271 102.901 72.6557 101.357 70.2036 99.5366C67.6146 97.6142 67.3136 97.1438 66.9211 95.4266Z" fill="white"/>
<path d="M73.4381 87.4357C71.8198 88.2271 70.555 89.6169 69.6252 91.1599C68.6954 92.7029 68.0703 94.4062 67.4508 96.0976C67.2847 93.3263 68.2665 90.5036 70.1174 88.4342C70.5421 87.9592 71.0252 87.5133 71.6169 87.2776C72.2091 87.0421 72.9299 87.0516 73.4381 87.4357Z" fill="#FFC088"/>
<path d="M57.5099 92.6358C57.1788 92.6377 56.8874 92.4364 56.5695 92.3428C54.1094 91.619 52.1884 90.7255 49.8964 90.9684C50.0001 91.072 49.9215 91.5173 49.8034 91.6045C49.4914 91.7811 49.0714 91.4488 49.0819 91.0904C49.0926 90.7316 49.4117 90.4426 49.7574 90.3466C50.1031 90.2507 50.719 90.1791 51.0732 90.2332C53.1464 90.5505 54.9712 90.9934 57.0448 91.3108C57.6138 91.3283 58.0082 90.7206 58.0966 90.1581C58.1854 89.5957 58.0952 89.0044 58.2762 88.4646C58.5688 87.5926 59.6411 87.1188 60.5035 87.3731C60.7184 87.4366 60.8052 87.7 60.6611 87.8715C59.8549 88.8307 59.5151 90.1705 59.757 91.3994C59.8027 91.6309 59.6573 91.857 59.4237 91.8909C58.8111 91.9804 58.1889 92.6317 57.5099 92.6358Z" fill="white"/>
<path d="M58.9032 81.2681C56.7474 79.3569 56.5491 76.0599 58.4603 73.9041C60.3715 71.7482 63.6685 71.5499 65.8243 73.4611C67.9801 75.3723 68.1785 78.6693 66.2673 80.8251C64.3561 82.9809 61.0591 83.1793 58.9032 81.2681Z" fill="white"/>
<path d="M59.3661 88.6719C59.5774 88.7456 59.7983 88.7096 59.8824 88.5795L62.257 84.9123C62.5403 84.4732 62.6511 83.955 62.5762 83.4133L61.9833 79.1176C61.959 78.9399 61.738 78.7716 61.4918 78.7429C61.2448 78.7139 61.0648 78.8345 61.0894 79.0126L61.6823 83.3083C61.7428 83.7459 61.6533 84.1645 61.4238 84.5192L59.0493 88.1864C58.956 88.3303 59.0666 88.535 59.2969 88.6437C59.3203 88.6547 59.343 88.6639 59.3661 88.6719Z" fill="white"/>
<path d="M117.043 121.438C116.42 122.144 115.797 122.85 115.173 123.557C111.132 119.905 106.837 116.534 102.329 113.477C102.947 112.658 103.697 111.94 104.541 111.359C108.709 114.718 112.876 118.078 117.043 121.438Z" fill="#172F35"/>
<path d="M106.037 112.159C106.276 111.599 106.035 110.905 105.556 110.528C105.077 110.152 104.413 110.065 103.818 110.199C103.224 110.333 102.691 110.666 102.222 111.055C101.639 111.538 101.128 112.127 100.84 112.827C100.708 113.147 100.695 113.578 100.75 114.017C100.865 114.937 101.834 115.505 102.683 115.133C104.08 114.523 105.602 113.181 106.037 112.159Z" fill="#172F35"/>
<path d="M114.779 121.827C113.809 122.734 113.616 124.105 114.349 124.888C115.082 125.671 116.462 125.57 117.432 124.663C118.402 123.755 118.595 122.384 117.862 121.602C117.13 120.818 115.749 120.919 114.779 121.827Z" fill="black"/>
<path d="M44.1229 145.942C44.9302 146.347 48.0138 147.898 48.8211 148.303C54.776 151.296 54.5751 163.726 48.3728 176.065C42.1705 188.405 32.3153 195.981 26.3609 192.988C25.5536 192.583 22.47 191.032 21.6627 190.627C15.7078 187.634 15.9087 175.205 22.111 162.865C28.3129 150.525 38.1681 142.949 44.1229 145.942Z" fill="black"/>
<path d="M36.0162 169.853C31.7987 178.244 30.434 186.078 32.9671 187.352C35.5009 188.626 40.9738 182.856 45.1914 174.465C49.4089 166.074 50.7736 158.24 48.2405 156.966C45.7063 155.693 40.2334 161.462 36.0162 169.853Z" fill="#A6BEBD"/>
<path d="M34.072 143.455C36.8543 141.508 40.0671 140.078 43.4505 139.785C50.4221 139.179 55.2894 143.424 56.1656 150.195C56.7776 154.923 56.635 160.89 54.7932 165.335C52.7347 170.304 50.6301 175.98 47.7929 180.55C38.5663 176.069 25.5559 168.982 18.2167 162.891C22.0609 155.716 27.4022 148.123 34.072 143.455Z" fill="#FF5C01"/>
<path d="M53.274 145.124C54.6829 146.662 55.4703 148.755 55.4256 150.84C54.9678 149.655 53.6711 148.925 52.4005 148.902C51.13 148.878 49.9088 149.464 48.9303 150.274C47.9518 151.085 47.1814 152.113 46.4205 153.13C42.6946 158.113 38.9688 163.095 35.2428 168.078C34.7629 168.72 34.25 169.389 33.5153 169.709C32.139 170.309 30.5914 169.487 29.3179 168.692C29.977 169.093 30.8568 168.949 31.5093 168.537C32.1618 168.126 32.6367 167.492 33.0943 166.87C38.0432 160.152 42.7711 153.271 47.2685 146.242C47.9833 145.125 48.8483 143.897 50.1595 143.694C51.336 143.511 52.4696 144.246 53.274 145.124Z" fill="#FFC088"/>
<path d="M53.8429 160.319C52.0807 167.071 47.5572 172.69 43.7692 178.552C43.0149 179.719 42.2616 180.93 41.1559 181.772C40.0495 182.614 38.4859 183.014 37.2511 182.376C35.8961 181.676 35.3555 179.936 35.5911 178.429C35.8268 176.923 36.6709 175.591 37.496 174.309C41.7712 167.661 46.0463 161.014 50.3217 154.367C51.63 153.719 53.2901 154.679 53.8668 156.021C54.4434 157.363 54.2119 158.907 53.8429 160.319Z" fill="black"/>
<path d="M41.2793 175.351C40.2674 178.253 40.2559 180.887 41.2533 181.235C42.2507 181.583 43.8796 179.513 44.8915 176.611C45.9034 173.709 45.9149 171.075 44.9175 170.727C43.9197 170.379 42.2912 172.45 41.2793 175.351Z" fill="#A6BEBD"/>
<path d="M37.6877 180.61C37.3313 180.827 36.8421 180.725 36.531 180.447C36.2199 180.169 36.0654 179.751 36.0103 179.338C35.8364 178.029 36.5411 176.781 37.2447 175.663C41.1908 169.397 45.9182 163.627 49.5218 157.158C49.8214 156.62 50.131 156.058 50.6398 155.711C51.1485 155.365 51.9214 155.319 52.325 155.784C52.6022 156.103 52.6351 156.578 52.5165 156.984C52.3977 157.39 52.1494 157.743 51.9075 158.089C49.3526 161.744 47.0281 165.559 44.9516 169.504C43.9927 169.425 43.1335 170.073 42.4512 170.751C40.1685 173.021 38.6709 176.066 38.2679 179.26C38.2036 179.764 38.1218 180.346 37.6877 180.61Z" fill="#A6BEBD"/>
<path d="M46.0803 170.511C46.4204 171.459 46.5605 172.479 46.489 173.485C46.915 172.521 46.7502 171.324 46.0803 170.511Z" fill="#A6BEBD"/>
<path d="M103.853 116.312C104.472 115.519 105.806 113.386 106.804 113.249C108.046 113.079 109.301 113.449 110.483 113.788C111.738 114.147 113.048 114.426 114.171 115.122C115.015 115.647 115.605 116.303 115.975 117.225C116.369 118.207 116.532 118.918 116.146 119.903C115.759 120.889 113.507 122.054 112.495 121.744C112.741 121.987 112.685 122.421 112.467 122.69C112.249 122.959 111.917 123.104 111.599 123.239C110.89 123.539 110.18 123.839 109.471 124.139C108.951 124.358 108.398 124.584 107.839 124.503C107.126 124.4 106.58 123.829 106.147 123.254C105.372 122.223 104.402 121.35 103.996 120.127C103.509 118.662 102.903 117.529 103.853 116.312Z" fill="#B08762"/>
<path d="M123.834 66.9404C123.834 67.2785 124.24 67.9547 125.862 67.9547" stroke="white" stroke-linecap="round"/>
<path d="M124.848 67.2993C124.966 67.1797 125.346 67.082 125.92 67.6486" stroke="white" stroke-linecap="round"/>
<path d="M107.337 202.919L102.337 205.381C102.246 205.426 102.151 205.451 102.049 205.455C101.003 205.492 94.7608 205.731 93.6741 206.104C92.4867 206.511 91.893 206.714 92.8924 207.905C93.8918 209.096 98.2679 211.063 103.034 212.03C107.8 212.996 112.165 213.367 115.932 213.143C118.381 212.998 119.991 212.688 120.817 212.49C121.193 212.4 121.428 212.028 121.357 211.646L120.137 205.055C120.08 204.745 119.831 204.507 119.521 204.465L107.754 202.851C107.612 202.831 107.467 202.854 107.337 202.919Z" fill="black" stroke="black" stroke-miterlimit="10" stroke-linecap="round" stroke-linejoin="round"/>
<path d="M92.8924 207.904C91.9986 206.839 92.3789 206.564 93.3186 206.227C93.5649 206.255 93.8795 206.29 94.1258 206.317C95.7772 207.402 98.6405 208.676 103.614 209.83C111.638 211.691 117.599 211.413 120.562 211.054C120.943 211.007 121.287 211.266 121.358 211.646C121.428 212.028 121.194 212.4 120.818 212.49C119.991 212.688 118.382 212.997 115.933 213.143C112.166 213.367 107.801 212.996 103.034 212.03C98.2679 211.062 93.8918 209.095 92.8924 207.904Z" fill="white" stroke="black" stroke-miterlimit="10" stroke-linecap="round" stroke-linejoin="round"/>
<path d="M23.7354 77.4082C24.8892 80.4171 28.3098 86.435 32.7621 86.435" stroke="#FF5C01" stroke-linecap="round"/>
<path d="M21 85.9243C23.0249 87.3408 27.7592 89.7013 30.4966 87.8119" stroke="#FF5C01" stroke-linecap="round"/>
<path d="M29.074 65C28.2597 69.9663 28.1016 80.7386 33.984 84.0975" stroke="#FF5C01" stroke-linecap="round"/>
<path d="M152.363 200L146.919 211.282M144 202.919L155.282 208.363" stroke="#FF5C01" stroke-width="1.5"/>
</svg>
