<svg width="168" height="183" viewBox="0 0 168 183" fill="none" xmlns="http://www.w3.org/2000/svg">
<path d="M79.5475 0H75.5063V136.423H79.5475V0Z" fill="#4E3129"/>
<path d="M79.5475 24.0859H75.5063V63.6149H79.5475V24.0859Z" fill="#4E3129"/>
<path d="M154.748 33.2999H0.350586C0.350586 33.2999 34.9134 5.18408 77.5486 5.18408C120.185 5.18506 154.748 33.2999 154.748 33.2999Z" fill="#FF5C01"/>
<path d="M77.548 5.18555C77.548 5.18555 44.6714 14.9146 30.0508 33.3013H56.4617C56.4617 33.3013 59.725 22.3526 77.548 5.18555Z" fill="#FFEDE2"/>
<path d="M77.5474 5.18555C77.5474 5.18555 110.424 14.9146 125.045 33.3013H98.6337C98.6337 33.3013 95.3704 22.3526 77.5474 5.18555Z" fill="#FFEDE2"/>
<path d="M26.956 46.0162H3.44697L0.350586 33.3008H30.0514L26.956 46.0162Z" fill="#FF5C01"/>
<path d="M53.6914 45.7281H32.8025L30.0508 33.0137H56.4421L53.6914 45.7281Z" fill="#FFEDE2"/>
<path d="M94.2169 46.0162H60.8385L56.4419 33.3008H98.6126L94.2169 46.0162Z" fill="#FF5C01"/>
<path d="M122.29 45.7281H101.368L98.6128 33.0137H125.045L122.29 45.7281Z" fill="#FFEDE2"/>
<path d="M151.651 46.0162H128.142L125.046 33.3008H154.748L151.651 46.0162Z" fill="#FF5C01"/>
<path d="M151.168 134.206H0V138.79H151.168V134.206Z" fill="#61504C"/>
<path d="M147.634 138.79H3.53516V182.593H147.634V138.79Z" fill="#4E3129"/>
<path d="M147.634 138.79H3.53516V143.374H147.634V138.79Z" fill="#4E3129"/>
<path d="M69.3831 90.0112H5.84033V134.206H69.3831V90.0112Z" fill="#4E3129"/>
<path d="M65.0714 94.3804H10.1558V111.596H65.0714V94.3804Z" fill="#FFF7F2"/>
<path d="M65.0714 114.292H10.1558V131.508H65.0714V114.292Z" fill="#FFF7F2"/>
<path d="M22.5069 94.3804L10.1558 100.53V94.3804H22.5069Z" fill="#FFFBD6"/>
<path d="M33.5941 94.3804L10.1558 106.063V103.089L27.6263 94.3804H33.5941Z" fill="#FFFBD6"/>
<path d="M34.8158 114.292H40.763L10.1558 129.553V126.59L34.8158 114.292Z" fill="#FFFBD6"/>
<path d="M65.0711 99.2129V102.176L46.1786 111.595H40.2314L65.0711 99.2129Z" fill="#FFFBD6"/>
<path d="M65.0719 115.822V118.807L39.5841 131.508H33.6055L65.0719 115.822Z" fill="#FFFBD6"/>
<path d="M65.0714 122.46V131.508H46.9224L65.0714 122.46Z" fill="#FFFBD6"/>
<path d="M116.358 134.205H137.542L141.145 103.411H119.961L116.358 134.205Z" fill="#80AFAE"/>
<path d="M116.358 134.205H137.542L141.145 103.411H119.961L116.358 134.205Z" fill="#665955" fill-opacity="0.8"/>
<path d="M144.794 134.205H123.609L120.006 103.411H141.19L144.794 134.205Z" fill="#665955"/>
<path d="M112.891 118.808H71.7915V134.206H112.891V118.808Z" fill="#665955"/>
<path d="M111.434 100.566H84.894V115.821H111.434V100.566Z" fill="#665955"/>
<path d="M100.814 103.967H95.1401V119.222H100.814V103.967Z" fill="#665955" fill-opacity="0.8"/>
<path d="M164.943 133.919C164.989 134.445 165.321 139.634 162.779 139.455C160.237 139.275 161.091 133.912 161.091 133.912L164.943 133.919Z" fill="#865546"/>
<path d="M166.223 130.059C166.223 130.059 166.703 134.371 164.99 134.445C163.277 134.519 161.168 134.782 161.168 134.782L160.772 130.274L166.223 130.059Z" fill="#FF833E"/>
<path d="M149.091 106.895C148.964 106.515 150.415 103.333 150.415 103.333C150.415 103.333 152.444 103.992 155.732 105.457C158.558 106.715 164.712 113.904 166.049 117.276C167.387 120.648 169.553 130.529 166.284 131.809C163.015 133.088 160.825 131.897 158.255 127.828C155.685 123.758 149.091 106.895 149.091 106.895Z" fill="#FF833E"/>
<path d="M146.265 94.7375C146.265 98.5435 142.197 101.923 139.329 101.923C136.46 101.923 135.875 98.5435 135.875 94.7375C135.875 90.9316 138.201 87.8467 141.07 87.8467C143.939 87.8467 146.265 90.9316 146.265 94.7375Z" fill="#865546"/>
<path d="M140.467 99.4298C140.467 99.4298 141.118 104.749 140.467 105.775C139.815 106.8 145.493 106.994 145.493 106.994L147.096 104.001C147.096 104.001 145.47 104.041 144.655 98.5049C143.839 92.9686 140.467 99.4298 140.467 99.4298Z" fill="#865546"/>
<path d="M141.382 100.75L145.025 100.456C145.025 100.456 147.395 97.0099 147.909 95.3978C148.421 93.7846 149.937 90.0768 147.395 90.046C147.395 90.046 148.339 87.9195 147.097 87.113C145.855 86.3064 140.43 86.0863 138.964 83.9608C137.498 81.8343 137.504 80.2221 136.437 81.3949C135.371 82.5678 136.437 85.2807 136.437 85.2807C136.437 85.2807 134.197 81.9814 133.684 83.0811C133.171 84.1809 135.297 87.3331 135.297 87.3331C135.297 87.3331 132.071 86.3064 131.998 87.4062C131.925 88.506 133.391 91.9514 137.79 92.5388L141.382 100.75Z" fill="#2E1A13"/>
<path d="M141.07 97.1566C141.07 96.2654 140.549 95.5435 139.906 95.5435C139.263 95.5435 138.742 96.2654 138.742 97.1566C138.742 98.0468 139.263 98.7687 139.906 98.7687C140.549 98.7697 141.07 98.0477 141.07 97.1566Z" fill="#865546"/>
<path d="M146.72 170.967L148.851 176.826L145.588 178.756L142.326 172.698L146.72 170.967Z" fill="#865546"/>
<path d="M152.979 173.231V179.279H156.442L157.573 172.698L152.979 173.231Z" fill="#865546"/>
<path d="M144.497 130.147C144.497 130.147 138.459 155.416 138.552 160.008C138.646 164.599 142.298 175.223 142.298 175.223L148.199 172.49C148.199 172.49 146.04 163.289 146.2 160.905C146.359 158.522 152.645 146.202 152.645 146.202L152.343 175.954L157.916 175.777C157.916 175.777 163.611 146.681 163.337 138.749C163.046 130.373 161.749 127.037 161.749 127.037L144.497 130.147Z" fill="black"/>
<path d="M148.579 176.097C148.579 176.097 151.654 177.337 151.972 178.068C152.29 178.799 146.717 182.404 144.637 182.404C142.557 182.404 136.317 182.885 137.083 181.024C137.849 179.163 141.571 179.706 143.213 178.832C144.856 177.958 148.579 176.097 148.579 176.097Z" fill="#2E1A13"/>
<path d="M152.965 178.194C152.965 178.194 158.085 178.301 159.341 178.784C160.596 179.267 162.528 180.202 162.625 181.295C162.721 182.388 153.83 182.905 151.642 181.957C149.453 181.009 152.965 178.194 152.965 178.194Z" fill="#2E1A13"/>
<path d="M142.519 129.061C142.519 129.061 141.987 135.115 143.474 135.356C144.961 135.598 163.304 131.845 163.638 129.666C163.974 127.487 161.956 124.46 161.956 124.46L142.519 129.061Z" fill="#FF833E"/>
<path d="M136.437 107.607C137.333 106.853 146.512 102.623 151.083 103.449C156.09 104.355 164.62 124.211 164.417 127.26C164.214 130.308 143.695 133.257 140.819 130.818C137.945 128.378 136.437 107.607 136.437 107.607Z" fill="#FF833E"/>
<path d="M120.899 115.304C120.899 115.304 119.617 108.559 118.954 108.38C118.291 108.201 118.954 112.26 118.954 112.26C118.954 112.26 118.057 111.328 117.7 111.746C117.342 112.165 117.578 112.836 117.578 112.836C117.578 112.836 116.742 112.41 116.563 113.081C116.384 113.752 116.943 114.198 116.943 114.198C116.943 114.198 116.709 114.051 116.395 114.767C116.082 115.483 117.743 117.874 118.954 117.785C120.166 117.697 120.899 115.304 120.899 115.304Z" fill="#865546"/>
<path d="M123.974 116.781C123.974 116.781 121.492 114.08 120.835 114.591C120.178 115.101 117.478 117.364 120.032 120.284C122.587 123.203 123.974 116.781 123.974 116.781Z" fill="#FF833E"/>
<path d="M139.064 106.899C137.452 106.595 136.482 106.388 134.329 111.446C132.177 116.503 131.813 120.066 131.167 120.281C130.521 120.497 125.29 114.674 122.708 115.427C120.126 116.18 117.865 120.699 121.309 123.82C124.752 126.94 129.81 131.49 132.823 129.915C135.836 128.339 140.694 123.478 141.98 119.744C142.763 117.474 144.203 107.866 139.064 106.899Z" fill="#FF833E"/>
</svg>
