<svg width="20" height="20" viewBox="0 0 20 20" fill="none" xmlns="http://www.w3.org/2000/svg">
<g id="streamline:shopping-bag-hand-bag-1-shopping-bag-purse-goods-item-products" clip-path="url(#clip0_843_62272)">
<g id="Group">
<path id="Vector" d="M16.0999 19.2869H3.89988C3.4967 19.2893 3.09756 19.2064 2.72872 19.0436C2.35987 18.8807 2.02965 18.6417 1.75979 18.3421C1.48992 18.0426 1.28651 17.6893 1.16292 17.3055C1.03934 16.9218 0.998377 16.5162 1.04274 16.1154L1.99988 7.70114C2.03872 7.35011 2.20621 7.02592 2.47003 6.79112C2.73385 6.55632 3.07529 6.42757 3.42845 6.42971H16.5713C16.9245 6.42757 17.2659 6.55632 17.5297 6.79112C17.7935 7.02592 17.961 7.35011 17.9999 7.70114L18.9284 16.1154C18.9725 16.5138 18.9323 16.9169 18.8104 17.2987C18.6885 17.6805 18.4877 18.0324 18.2209 18.3315C17.9542 18.6306 17.6275 18.8702 17.262 19.0348C16.8966 19.1994 16.5007 19.2853 16.0999 19.2869Z" stroke="#A8A8A8" stroke-width="2" stroke-linecap="round" stroke-linejoin="round"/>
<path id="Vector_2" d="M4.28516 6.42913C4.28516 4.91361 4.8872 3.46016 5.95883 2.38852C7.03047 1.31688 8.48392 0.714844 9.99944 0.714844C11.515 0.714844 12.9684 1.31688 14.0401 2.38852C15.1117 3.46016 15.7137 4.91361 15.7137 6.42913M6.42801 10.7148H13.5709" stroke="#A8A8A8" stroke-width="2" stroke-linecap="round" stroke-linejoin="round"/>
</g>
</g>
<defs>
<clipPath id="clip0_843_62272">
<rect width="20" height="20" fill="white"/>
</clipPath>
</defs>
</svg>
