<svg width="33" height="33" viewBox="0 0 33 33" fill="none" xmlns="http://www.w3.org/2000/svg">
<g id="streamline:shopping-bag-hand-bag-1-shopping-bag-purse-goods-item-products" clip-path="url(#clip0_843_62106)">
<g id="Group">
<path id="Vector" d="M26.5643 31.8237H6.43431C5.76906 31.8277 5.11049 31.6909 4.50189 31.4223C3.89329 31.1536 3.34844 30.7592 2.90316 30.2649C2.45788 29.7707 2.12225 29.1878 1.91833 28.5545C1.71442 27.9213 1.64683 27.2521 1.72002 26.5908L3.29931 12.7073C3.3634 12.1281 3.63976 11.5932 4.07506 11.2057C4.51036 10.8183 5.07373 10.6059 5.65645 10.6094H27.3422C27.9249 10.6059 28.4883 10.8183 28.9236 11.2057C29.3589 11.5932 29.6352 12.1281 29.6993 12.7073L31.2315 26.5908C31.3042 27.2481 31.2379 27.9133 31.0367 28.5433C30.8356 29.1732 30.5042 29.7538 30.064 30.2474C29.6239 30.7409 29.0848 31.1363 28.4819 31.4078C27.8789 31.6794 27.2256 31.8211 26.5643 31.8237Z" fill="#4148FF" stroke="white" stroke-width="2" stroke-linecap="round" stroke-linejoin="round"/>
<g id="Vector_2">
<path d="M7.07031 10.6083C7.07031 8.10765 8.06368 5.70945 9.83188 3.94125C11.6001 2.17305 13.9983 1.17969 16.4989 1.17969C18.9995 1.17969 21.3977 2.17305 23.1659 3.94125C24.9341 5.70945 25.9275 8.10765 25.9275 10.6083M10.606 17.6797H22.3917H10.606Z" fill="#4148FF"/>
<path d="M7.07031 10.6083C7.07031 8.10765 8.06368 5.70945 9.83188 3.94125C11.6001 2.17305 13.9983 1.17969 16.4989 1.17969C18.9995 1.17969 21.3977 2.17305 23.1659 3.94125C24.9341 5.70945 25.9275 8.10765 25.9275 10.6083M10.606 17.6797H22.3917" stroke="white" stroke-width="2" stroke-linecap="round" stroke-linejoin="round"/>
</g>
</g>
</g>
<defs>
<clipPath id="clip0_843_62106">
<rect width="33" height="33" fill="white"/>
</clipPath>
</defs>
</svg>
