<svg width="32" height="32" viewBox="0 0 32 32" fill="none" xmlns="http://www.w3.org/2000/svg">
<path id="Vector" d="M6.61111 24.8889V25.3889H7.11111H19.5556H20.0556V24.8889V21.3333V20.8333H19.5556H7.11111H6.61111V21.3333V24.8889ZM6.61111 17.7778V18.2778H7.11111H24.8889H25.3889V17.7778V14.2222V13.7222H24.8889H7.11111H6.61111V14.2222V17.7778ZM6.61111 10.6667V11.1667H7.11111H24.8889H25.3889V10.6667V7.11111V6.61111H24.8889H7.11111H6.61111V7.11111V10.6667ZM0.500003 28.445V28.4444V3.55556C0.500003 2.71157 0.794931 2.00107 1.39889 1.39711C2.00283 0.793171 2.71254 0.49898 3.55495 0.500003H3.55556H28.4444C29.2884 0.500003 29.9989 0.794931 30.6029 1.39889C31.2068 2.00283 31.501 2.71254 31.5 3.55495V3.55556V28.4444C31.5 29.2884 31.2051 29.9989 30.6011 30.6029C29.9972 31.2068 29.2875 31.501 28.445 31.5H28.4444H3.55556C2.71157 31.5 2.00107 31.2051 1.39711 30.6011C0.793171 29.9972 0.49898 29.2875 0.500003 28.445Z" fill="#FF5C01" stroke="white"/>
</svg>
