<svg width="41" height="24" viewBox="0 0 41 24" fill="none" xmlns="http://www.w3.org/2000/svg">
<path id="Vector" d="M35.5 10.0833L35.4964 10.0833C35.0745 10.0864 34.6558 10.151 34.2535 10.2747L30.1188 6.89003C30.1971 6.54482 30.25 6.17863 30.25 5.79167C30.25 2.85902 27.891 0.5 24.9583 0.5C22.0257 0.5 19.6667 2.85902 19.6667 5.79167C19.6667 6.51679 19.824 7.19541 20.083 7.81257L14.892 13.9475C14.7364 13.929 14.5798 13.9187 14.423 13.9167L14.423 13.9167H14.4167C14.1258 13.9167 13.851 13.9522 13.591 14.007L9.07558 9.49164C9.13125 9.23164 9.16667 8.95701 9.16667 8.66667C9.16667 6.26686 7.23314 4.33333 4.83333 4.33333C2.43352 4.33333 0.5 6.26686 0.5 8.66667C0.5 11.0665 2.43352 13 4.83333 13C5.12424 13 5.39902 12.9644 5.65904 12.9096L10.1735 17.4242C10.1163 17.6939 10.0861 17.9689 10.0834 18.2451H10.0833V18.25C10.0833 20.6498 12.0169 22.5833 14.4167 22.5833C16.8165 22.5833 18.75 20.6498 18.75 18.25C18.75 17.8339 18.6828 17.4421 18.5755 17.0747L23.7745 10.9316C24.146 11.0219 24.5405 11.0833 24.9583 11.0833L24.9611 11.0833C25.6853 11.0793 26.3996 10.9256 27.0596 10.6333L31.1929 14.0154C31.1785 14.1448 31.1698 14.2748 31.1668 14.405L31.1667 14.405V14.4167C31.1667 16.8165 33.1002 18.75 35.5 18.75C37.8998 18.75 39.8333 16.8165 39.8333 14.4167C39.8333 12.0169 37.8998 10.0833 35.5 10.0833Z" fill="#FA00FF" stroke="white"/>
</svg>
