<svg width="22" height="22" viewBox="0 0 22 22" fill="none" xmlns="http://www.w3.org/2000/svg">
<path id="Vector" d="M4.38889 17.1111V17.6111H4.88889H13.4444H13.9444V17.1111V14.6667V14.1667H13.4444H4.88889H4.38889V14.6667V17.1111ZM4.38889 12.2222V12.7222H4.88889H17.1111H17.6111V12.2222V9.77778V9.27778H17.1111H4.88889H4.38889V9.77778V12.2222ZM4.38889 7.33333V7.83333H4.88889H17.1111H17.6111V7.33333V4.88889V4.38889H17.1111H4.88889H4.38889V4.88889V7.33333ZM0.500002 19.5562V19.5556V2.44445C0.500002 1.90601 0.686041 1.45718 1.07222 1.071C1.45838 0.684837 1.90661 0.49935 2.44384 0.500002H2.44445H19.5556C20.094 0.500002 20.5428 0.686041 20.929 1.07222L21.2806 0.720666L20.929 1.07222C21.3152 1.45839 21.5007 1.90661 21.5 2.44384V2.44445V19.5556C21.5 20.094 21.314 20.5428 20.9278 20.929C20.5416 21.3152 20.0934 21.5007 19.5562 21.5H19.5556H2.44445C1.90601 21.5 1.45718 21.314 1.071 20.9278C0.684837 20.5416 0.49935 20.0934 0.500002 19.5562Z" stroke="#A8A8A8"/>
</svg>
